<svg width="500" height="520" viewBox="0 0 500 520" fill="none" xmlns="http://www.w3.org/2000/svg">
<g filter="url(#filter0_d_1_673)">
<rect x="100" y="75" width="300" height="320" rx="10" fill="white"/>
</g>
<path d="M180.845 225V185.112L172.565 187.056V180L184.733 174.6H190.421V225H180.845ZM216.765 225.864C213.069 225.864 209.877 225.216 207.189 223.92C204.549 222.624 202.461 220.848 200.925 218.592C199.437 216.288 198.573 213.696 198.333 210.816H207.333C207.765 212.88 208.821 214.608 210.501 216C212.181 217.344 214.269 218.016 216.765 218.016C219.453 218.016 221.637 217.032 223.317 215.064C225.045 213.096 225.909 210.648 225.909 207.72C225.909 204.696 225.045 202.296 223.317 200.52C221.637 198.744 219.501 197.856 216.909 197.856C214.749 197.856 212.877 198.384 211.293 199.44C209.709 200.496 208.581 201.816 207.909 203.4H199.053L203.373 174.6H231.309V182.664H210.285L207.981 194.328C209.037 193.176 210.477 192.24 212.301 191.52C214.125 190.752 216.165 190.368 218.421 190.368C222.021 190.368 225.021 191.184 227.421 192.816C229.821 194.4 231.645 196.512 232.893 199.152C234.141 201.744 234.765 204.576 234.765 207.648C234.765 211.152 233.997 214.272 232.461 217.008C230.973 219.744 228.861 221.904 226.125 223.488C223.437 225.072 220.317 225.864 216.765 225.864ZM262.505 225.864C257.849 225.864 253.865 224.784 250.553 222.624C247.241 220.416 244.673 217.368 242.849 213.48C241.073 209.544 240.185 204.984 240.185 199.8C240.185 194.664 241.073 190.128 242.849 186.192C244.673 182.256 247.241 179.208 250.553 177.048C253.865 174.84 257.849 173.736 262.505 173.736C267.161 173.736 271.145 174.84 274.457 177.048C277.769 179.208 280.313 182.256 282.089 186.192C283.913 190.128 284.825 194.664 284.825 199.8C284.825 204.984 283.913 209.544 282.089 213.48C280.313 217.368 277.769 220.416 274.457 222.624C271.145 224.784 267.161 225.864 262.505 225.864ZM262.505 217.584C266.297 217.584 269.393 216 271.793 212.832C274.193 209.664 275.393 205.32 275.393 199.8C275.393 194.28 274.193 189.936 271.793 186.768C269.393 183.6 266.297 182.016 262.505 182.016C258.665 182.016 255.545 183.6 253.145 186.768C250.793 189.936 249.617 194.28 249.617 199.8C249.617 205.32 250.793 209.664 253.145 212.832C255.545 216 258.665 217.584 262.505 217.584ZM290.595 208.008V200.304H304.131V187.848H311.979V200.304H325.443V208.008H311.979V220.464H304.131V208.008H290.595Z" fill="#FF753A"/>
<path opacity="0.7" d="M174.409 267V254.4H182.077V255.642H175.921V260.07H181.159V261.294H175.921V267H174.409ZM183.434 267V258.072H184.802L184.928 259.782C185.204 259.194 185.624 258.726 186.188 258.378C186.752 258.03 187.448 257.856 188.276 257.856V259.44H187.862C187.334 259.44 186.848 259.536 186.404 259.728C185.96 259.908 185.606 260.22 185.342 260.664C185.078 261.108 184.946 261.72 184.946 262.5V267H183.434ZM193.153 267.216C192.301 267.216 191.545 267.024 190.885 266.64C190.225 266.244 189.703 265.698 189.319 265.002C188.947 264.306 188.761 263.484 188.761 262.536C188.761 261.6 188.947 260.784 189.319 260.088C189.691 259.38 190.207 258.834 190.867 258.45C191.539 258.054 192.313 257.856 193.189 257.856C194.053 257.856 194.797 258.054 195.421 258.45C196.057 258.834 196.543 259.344 196.879 259.98C197.215 260.616 197.383 261.3 197.383 262.032C197.383 262.164 197.377 262.296 197.365 262.428C197.365 262.56 197.365 262.71 197.365 262.878H190.255C190.291 263.562 190.447 264.132 190.723 264.588C191.011 265.032 191.365 265.368 191.785 265.596C192.217 265.824 192.673 265.938 193.153 265.938C193.777 265.938 194.299 265.794 194.719 265.506C195.139 265.218 195.445 264.828 195.637 264.336H197.131C196.891 265.164 196.429 265.854 195.745 266.406C195.073 266.946 194.209 267.216 193.153 267.216ZM193.153 259.134C192.433 259.134 191.791 259.356 191.227 259.8C190.675 260.232 190.357 260.868 190.273 261.708H195.889C195.853 260.904 195.577 260.274 195.061 259.818C194.545 259.362 193.909 259.134 193.153 259.134ZM202.902 267.216C202.05 267.216 201.294 267.024 200.634 266.64C199.974 266.244 199.452 265.698 199.068 265.002C198.696 264.306 198.51 263.484 198.51 262.536C198.51 261.6 198.696 260.784 199.068 260.088C199.44 259.38 199.956 258.834 200.616 258.45C201.288 258.054 202.062 257.856 202.938 257.856C203.802 257.856 204.546 258.054 205.17 258.45C205.806 258.834 206.292 259.344 206.628 259.98C206.964 260.616 207.132 261.3 207.132 262.032C207.132 262.164 207.126 262.296 207.114 262.428C207.114 262.56 207.114 262.71 207.114 262.878H200.004C200.04 263.562 200.196 264.132 200.472 264.588C200.76 265.032 201.114 265.368 201.534 265.596C201.966 265.824 202.422 265.938 202.902 265.938C203.526 265.938 204.048 265.794 204.468 265.506C204.888 265.218 205.194 264.828 205.386 264.336H206.88C206.64 265.164 206.178 265.854 205.494 266.406C204.822 266.946 203.958 267.216 202.902 267.216ZM202.902 259.134C202.182 259.134 201.54 259.356 200.976 259.8C200.424 260.232 200.106 260.868 200.022 261.708H205.638C205.602 260.904 205.326 260.274 204.81 259.818C204.294 259.362 203.658 259.134 202.902 259.134ZM216.967 267.216C216.127 267.216 215.371 267.024 214.699 266.64C214.027 266.256 213.493 265.716 213.097 265.02C212.713 264.312 212.521 263.484 212.521 262.536C212.521 261.588 212.719 260.766 213.115 260.07C213.511 259.362 214.045 258.816 214.717 258.432C215.401 258.048 216.163 257.856 217.003 257.856C217.843 257.856 218.599 258.048 219.271 258.432C219.943 258.816 220.471 259.362 220.855 260.07C221.251 260.766 221.449 261.588 221.449 262.536C221.449 263.484 221.251 264.312 220.855 265.02C220.459 265.716 219.919 266.256 219.235 266.64C218.563 267.024 217.807 267.216 216.967 267.216ZM216.967 265.92C217.483 265.92 217.963 265.794 218.407 265.542C218.851 265.29 219.211 264.912 219.487 264.408C219.763 263.904 219.901 263.28 219.901 262.536C219.901 261.792 219.763 261.168 219.487 260.664C219.223 260.16 218.869 259.782 218.425 259.53C217.981 259.278 217.507 259.152 217.003 259.152C216.487 259.152 216.007 259.278 215.563 259.53C215.119 259.782 214.759 260.16 214.483 260.664C214.207 261.168 214.069 261.792 214.069 262.536C214.069 263.28 214.207 263.904 214.483 264.408C214.759 264.912 215.113 265.29 215.545 265.542C215.989 265.794 216.463 265.92 216.967 265.92ZM223.052 267V258.072H224.42L224.51 259.674C224.798 259.11 225.212 258.666 225.752 258.342C226.292 258.018 226.904 257.856 227.588 257.856C228.644 257.856 229.484 258.18 230.108 258.828C230.744 259.464 231.062 260.448 231.062 261.78V267H229.55V261.942C229.55 260.082 228.782 259.152 227.246 259.152C226.478 259.152 225.836 259.434 225.32 259.998C224.816 260.55 224.564 261.342 224.564 262.374V267H223.052ZM232.852 267V254.04H234.364V267H232.852ZM237.261 256.092C236.961 256.092 236.709 255.996 236.505 255.804C236.313 255.6 236.217 255.348 236.217 255.048C236.217 254.76 236.313 254.52 236.505 254.328C236.709 254.136 236.961 254.04 237.261 254.04C237.549 254.04 237.795 254.136 237.999 254.328C238.203 254.52 238.305 254.76 238.305 255.048C238.305 255.348 238.203 255.6 237.999 255.804C237.795 255.996 237.549 256.092 237.261 256.092ZM236.505 267V258.072H238.017V267H236.505ZM240.149 267V258.072H241.517L241.607 259.674C241.895 259.11 242.309 258.666 242.849 258.342C243.389 258.018 244.001 257.856 244.685 257.856C245.741 257.856 246.581 258.18 247.205 258.828C247.841 259.464 248.159 260.448 248.159 261.78V267H246.647V261.942C246.647 260.082 245.879 259.152 244.343 259.152C243.575 259.152 242.933 259.434 242.417 259.998C241.913 260.55 241.661 261.342 241.661 262.374V267H240.149ZM253.964 267.216C253.112 267.216 252.356 267.024 251.696 266.64C251.036 266.244 250.514 265.698 250.13 265.002C249.758 264.306 249.572 263.484 249.572 262.536C249.572 261.6 249.758 260.784 250.13 260.088C250.502 259.38 251.018 258.834 251.678 258.45C252.35 258.054 253.124 257.856 254 257.856C254.864 257.856 255.608 258.054 256.232 258.45C256.868 258.834 257.354 259.344 257.69 259.98C258.026 260.616 258.194 261.3 258.194 262.032C258.194 262.164 258.188 262.296 258.176 262.428C258.176 262.56 258.176 262.71 258.176 262.878H251.066C251.102 263.562 251.258 264.132 251.534 264.588C251.822 265.032 252.176 265.368 252.596 265.596C253.028 265.824 253.484 265.938 253.964 265.938C254.588 265.938 255.11 265.794 255.53 265.506C255.95 265.218 256.256 264.828 256.448 264.336H257.942C257.702 265.164 257.24 265.854 256.556 266.406C255.884 266.946 255.02 267.216 253.964 267.216ZM253.964 259.134C253.244 259.134 252.602 259.356 252.038 259.8C251.486 260.232 251.168 260.868 251.084 261.708H256.7C256.664 260.904 256.388 260.274 255.872 259.818C255.356 259.362 254.72 259.134 253.964 259.134ZM267.49 267C266.674 267 266.032 266.802 265.564 266.406C265.096 266.01 264.862 265.296 264.862 264.264V259.35H263.314V258.072H264.862L265.06 255.93H266.374V258.072H269.002V259.35H266.374V264.264C266.374 264.828 266.488 265.212 266.716 265.416C266.944 265.608 267.346 265.704 267.922 265.704H268.858V267H267.49ZM278.235 258.072V267H276.867L276.777 265.398C276.489 265.962 276.075 266.406 275.535 266.73C274.995 267.054 274.383 267.216 273.699 267.216C272.643 267.216 271.797 266.898 271.161 266.262C270.537 265.614 270.225 264.624 270.225 263.292V258.072H271.737V263.13C271.737 264.99 272.505 265.92 274.041 265.92C274.809 265.92 275.445 265.644 275.949 265.092C276.465 264.528 276.723 263.73 276.723 262.698V258.072H278.235ZM283.751 267C282.935 267 282.293 266.802 281.825 266.406C281.357 266.01 281.123 265.296 281.123 264.264V259.35H279.575V258.072H281.123L281.321 255.93H282.635V258.072H285.263V259.35H282.635V264.264C282.635 264.828 282.749 265.212 282.977 265.416C283.205 265.608 283.607 265.704 284.183 265.704H285.119V267H283.751ZM290.506 267.216C289.666 267.216 288.91 267.024 288.238 266.64C287.566 266.256 287.032 265.716 286.636 265.02C286.252 264.312 286.06 263.484 286.06 262.536C286.06 261.588 286.258 260.766 286.654 260.07C287.05 259.362 287.584 258.816 288.256 258.432C288.94 258.048 289.702 257.856 290.542 257.856C291.382 257.856 292.138 258.048 292.81 258.432C293.482 258.816 294.01 259.362 294.394 260.07C294.79 260.766 294.988 261.588 294.988 262.536C294.988 263.484 294.79 264.312 294.394 265.02C293.998 265.716 293.458 266.256 292.774 266.64C292.102 267.024 291.346 267.216 290.506 267.216ZM290.506 265.92C291.022 265.92 291.502 265.794 291.946 265.542C292.39 265.29 292.75 264.912 293.026 264.408C293.302 263.904 293.44 263.28 293.44 262.536C293.44 261.792 293.302 261.168 293.026 260.664C292.762 260.16 292.408 259.782 291.964 259.53C291.52 259.278 291.046 259.152 290.542 259.152C290.026 259.152 289.546 259.278 289.102 259.53C288.658 259.782 288.298 260.16 288.022 260.664C287.746 261.168 287.608 261.792 287.608 262.536C287.608 263.28 287.746 263.904 288.022 264.408C288.298 264.912 288.652 265.29 289.084 265.542C289.528 265.794 290.002 265.92 290.506 265.92ZM296.591 267V258.072H297.959L298.085 259.782C298.361 259.194 298.781 258.726 299.345 258.378C299.909 258.03 300.605 257.856 301.433 257.856V259.44H301.019C300.491 259.44 300.005 259.536 299.561 259.728C299.117 259.908 298.763 260.22 298.499 260.664C298.235 261.108 298.103 261.72 298.103 262.5V267H296.591ZM303.548 256.092C303.248 256.092 302.996 255.996 302.792 255.804C302.6 255.6 302.504 255.348 302.504 255.048C302.504 254.76 302.6 254.52 302.792 254.328C302.996 254.136 303.248 254.04 303.548 254.04C303.836 254.04 304.082 254.136 304.286 254.328C304.49 254.52 304.592 254.76 304.592 255.048C304.592 255.348 304.49 255.6 304.286 255.804C304.082 255.996 303.836 256.092 303.548 256.092ZM302.792 267V258.072H304.304V267H302.792ZM309.406 267.216C308.662 267.216 308.044 267.09 307.552 266.838C307.06 266.586 306.694 266.25 306.454 265.83C306.214 265.41 306.094 264.954 306.094 264.462C306.094 263.55 306.442 262.848 307.138 262.356C307.834 261.864 308.782 261.618 309.982 261.618H312.394V261.51C312.394 260.73 312.19 260.142 311.782 259.746C311.374 259.338 310.828 259.134 310.144 259.134C309.556 259.134 309.046 259.284 308.614 259.584C308.194 259.872 307.93 260.298 307.822 260.862H306.274C306.334 260.214 306.55 259.668 306.922 259.224C307.306 258.78 307.78 258.444 308.344 258.216C308.908 257.976 309.508 257.856 310.144 257.856C311.392 257.856 312.328 258.192 312.952 258.864C313.588 259.524 313.906 260.406 313.906 261.51V267H312.556L312.466 265.398C312.214 265.902 311.842 266.334 311.35 266.694C310.87 267.042 310.222 267.216 309.406 267.216ZM309.64 265.938C310.216 265.938 310.708 265.788 311.116 265.488C311.536 265.188 311.854 264.798 312.07 264.318C312.286 263.838 312.394 263.334 312.394 262.806V262.788H310.108C309.22 262.788 308.59 262.944 308.218 263.256C307.858 263.556 307.678 263.934 307.678 264.39C307.678 264.858 307.846 265.236 308.182 265.524C308.53 265.8 309.016 265.938 309.64 265.938ZM315.675 267V254.04H317.187V267H315.675ZM322.585 267.216C321.517 267.216 320.629 266.946 319.921 266.406C319.213 265.866 318.799 265.134 318.679 264.21H320.227C320.323 264.678 320.569 265.086 320.965 265.434C321.373 265.77 321.919 265.938 322.603 265.938C323.239 265.938 323.707 265.806 324.007 265.542C324.307 265.266 324.457 264.942 324.457 264.57C324.457 264.03 324.259 263.67 323.863 263.49C323.479 263.31 322.933 263.148 322.225 263.004C321.745 262.908 321.265 262.77 320.785 262.59C320.305 262.41 319.903 262.158 319.579 261.834C319.255 261.498 319.093 261.06 319.093 260.52C319.093 259.74 319.381 259.104 319.957 258.612C320.545 258.108 321.337 257.856 322.333 257.856C323.281 257.856 324.055 258.096 324.655 258.576C325.267 259.044 325.621 259.716 325.717 260.592H324.223C324.163 260.136 323.965 259.782 323.629 259.53C323.305 259.266 322.867 259.134 322.315 259.134C321.775 259.134 321.355 259.248 321.055 259.476C320.767 259.704 320.623 260.004 320.623 260.376C320.623 260.736 320.809 261.018 321.181 261.222C321.565 261.426 322.081 261.6 322.729 261.744C323.281 261.864 323.803 262.014 324.295 262.194C324.799 262.362 325.207 262.62 325.519 262.968C325.843 263.304 326.005 263.796 326.005 264.444C326.017 265.248 325.711 265.914 325.087 266.442C324.475 266.958 323.641 267.216 322.585 267.216ZM191.912 293L188.528 284.072H190.112L192.794 291.542L195.494 284.072H197.042L193.658 293H191.912ZM199.142 282.092C198.842 282.092 198.59 281.996 198.386 281.804C198.194 281.6 198.098 281.348 198.098 281.048C198.098 280.76 198.194 280.52 198.386 280.328C198.59 280.136 198.842 280.04 199.142 280.04C199.43 280.04 199.676 280.136 199.88 280.328C200.084 280.52 200.186 280.76 200.186 281.048C200.186 281.348 200.084 281.6 199.88 281.804C199.676 281.996 199.43 282.092 199.142 282.092ZM198.386 293V284.072H199.898V293H198.386ZM206.081 293.216C205.193 293.216 204.413 293.012 203.741 292.604C203.081 292.196 202.565 291.638 202.193 290.93C201.833 290.222 201.653 289.418 201.653 288.518C201.653 287.618 201.839 286.82 202.211 286.124C202.583 285.416 203.099 284.864 203.759 284.468C204.419 284.06 205.199 283.856 206.099 283.856C206.831 283.856 207.479 284.006 208.043 284.306C208.607 284.606 209.045 285.026 209.357 285.566V280.04H210.869V293H209.501L209.357 291.524C209.069 291.956 208.655 292.346 208.115 292.694C207.575 293.042 206.897 293.216 206.081 293.216ZM206.243 291.902C206.843 291.902 207.371 291.764 207.827 291.488C208.295 291.2 208.655 290.804 208.907 290.3C209.171 289.796 209.303 289.208 209.303 288.536C209.303 287.864 209.171 287.276 208.907 286.772C208.655 286.268 208.295 285.878 207.827 285.602C207.371 285.314 206.843 285.17 206.243 285.17C205.655 285.17 205.127 285.314 204.659 285.602C204.203 285.878 203.843 286.268 203.579 286.772C203.327 287.276 203.201 287.864 203.201 288.536C203.201 289.208 203.327 289.796 203.579 290.3C203.843 290.804 204.203 291.2 204.659 291.488C205.127 291.764 205.655 291.902 206.243 291.902ZM216.848 293.216C215.996 293.216 215.24 293.024 214.58 292.64C213.92 292.244 213.398 291.698 213.014 291.002C212.642 290.306 212.456 289.484 212.456 288.536C212.456 287.6 212.642 286.784 213.014 286.088C213.386 285.38 213.902 284.834 214.562 284.45C215.234 284.054 216.008 283.856 216.884 283.856C217.748 283.856 218.492 284.054 219.116 284.45C219.752 284.834 220.238 285.344 220.574 285.98C220.91 286.616 221.078 287.3 221.078 288.032C221.078 288.164 221.072 288.296 221.06 288.428C221.06 288.56 221.06 288.71 221.06 288.878H213.95C213.986 289.562 214.142 290.132 214.418 290.588C214.706 291.032 215.06 291.368 215.48 291.596C215.912 291.824 216.368 291.938 216.848 291.938C217.472 291.938 217.994 291.794 218.414 291.506C218.834 291.218 219.14 290.828 219.332 290.336H220.826C220.586 291.164 220.124 291.854 219.44 292.406C218.768 292.946 217.904 293.216 216.848 293.216ZM216.848 285.134C216.128 285.134 215.486 285.356 214.922 285.8C214.37 286.232 214.052 286.868 213.968 287.708H219.584C219.548 286.904 219.272 286.274 218.756 285.818C218.24 285.362 217.604 285.134 216.848 285.134ZM226.65 293.216C225.81 293.216 225.054 293.024 224.382 292.64C223.71 292.256 223.176 291.716 222.78 291.02C222.396 290.312 222.204 289.484 222.204 288.536C222.204 287.588 222.402 286.766 222.798 286.07C223.194 285.362 223.728 284.816 224.4 284.432C225.084 284.048 225.846 283.856 226.686 283.856C227.526 283.856 228.282 284.048 228.954 284.432C229.626 284.816 230.154 285.362 230.538 286.07C230.934 286.766 231.132 287.588 231.132 288.536C231.132 289.484 230.934 290.312 230.538 291.02C230.142 291.716 229.602 292.256 228.918 292.64C228.246 293.024 227.49 293.216 226.65 293.216ZM226.65 291.92C227.166 291.92 227.646 291.794 228.09 291.542C228.534 291.29 228.894 290.912 229.17 290.408C229.446 289.904 229.584 289.28 229.584 288.536C229.584 287.792 229.446 287.168 229.17 286.664C228.906 286.16 228.552 285.782 228.108 285.53C227.664 285.278 227.19 285.152 226.686 285.152C226.17 285.152 225.69 285.278 225.246 285.53C224.802 285.782 224.442 286.16 224.166 286.664C223.89 287.168 223.752 287.792 223.752 288.536C223.752 289.28 223.89 289.904 224.166 290.408C224.442 290.912 224.796 291.29 225.228 291.542C225.672 291.794 226.146 291.92 226.65 291.92ZM236.154 293.216C235.086 293.216 234.198 292.946 233.49 292.406C232.782 291.866 232.368 291.134 232.248 290.21H233.796C233.892 290.678 234.138 291.086 234.534 291.434C234.942 291.77 235.488 291.938 236.172 291.938C236.808 291.938 237.276 291.806 237.576 291.542C237.876 291.266 238.026 290.942 238.026 290.57C238.026 290.03 237.828 289.67 237.432 289.49C237.048 289.31 236.502 289.148 235.794 289.004C235.314 288.908 234.834 288.77 234.354 288.59C233.874 288.41 233.472 288.158 233.148 287.834C232.824 287.498 232.662 287.06 232.662 286.52C232.662 285.74 232.95 285.104 233.526 284.612C234.114 284.108 234.906 283.856 235.902 283.856C236.85 283.856 237.624 284.096 238.224 284.576C238.836 285.044 239.19 285.716 239.286 286.592H237.792C237.732 286.136 237.534 285.782 237.198 285.53C236.874 285.266 236.436 285.134 235.884 285.134C235.344 285.134 234.924 285.248 234.624 285.476C234.336 285.704 234.192 286.004 234.192 286.376C234.192 286.736 234.378 287.018 234.75 287.222C235.134 287.426 235.65 287.6 236.298 287.744C236.85 287.864 237.372 288.014 237.864 288.194C238.368 288.362 238.776 288.62 239.088 288.968C239.412 289.304 239.574 289.796 239.574 290.444C239.586 291.248 239.28 291.914 238.656 292.442C238.044 292.958 237.21 293.216 236.154 293.216ZM248.468 293.216C247.724 293.216 247.106 293.09 246.614 292.838C246.122 292.586 245.756 292.25 245.516 291.83C245.276 291.41 245.156 290.954 245.156 290.462C245.156 289.55 245.504 288.848 246.2 288.356C246.896 287.864 247.844 287.618 249.044 287.618H251.456V287.51C251.456 286.73 251.252 286.142 250.844 285.746C250.436 285.338 249.89 285.134 249.206 285.134C248.618 285.134 248.108 285.284 247.676 285.584C247.256 285.872 246.992 286.298 246.884 286.862H245.336C245.396 286.214 245.612 285.668 245.984 285.224C246.368 284.78 246.842 284.444 247.406 284.216C247.97 283.976 248.57 283.856 249.206 283.856C250.454 283.856 251.39 284.192 252.014 284.864C252.65 285.524 252.968 286.406 252.968 287.51V293H251.618L251.528 291.398C251.276 291.902 250.904 292.334 250.412 292.694C249.932 293.042 249.284 293.216 248.468 293.216ZM248.702 291.938C249.278 291.938 249.77 291.788 250.178 291.488C250.598 291.188 250.916 290.798 251.132 290.318C251.348 289.838 251.456 289.334 251.456 288.806V288.788H249.17C248.282 288.788 247.652 288.944 247.28 289.256C246.92 289.556 246.74 289.934 246.74 290.39C246.74 290.858 246.908 291.236 247.244 291.524C247.592 291.8 248.078 291.938 248.702 291.938ZM256.976 293L253.592 284.072H255.176L257.858 291.542L260.558 284.072H262.106L258.722 293H256.976ZM265.802 293.216C265.058 293.216 264.44 293.09 263.948 292.838C263.456 292.586 263.09 292.25 262.85 291.83C262.61 291.41 262.49 290.954 262.49 290.462C262.49 289.55 262.838 288.848 263.534 288.356C264.23 287.864 265.178 287.618 266.378 287.618H268.79V287.51C268.79 286.73 268.586 286.142 268.178 285.746C267.77 285.338 267.224 285.134 266.54 285.134C265.952 285.134 265.442 285.284 265.01 285.584C264.59 285.872 264.326 286.298 264.218 286.862H262.67C262.73 286.214 262.946 285.668 263.318 285.224C263.702 284.78 264.176 284.444 264.74 284.216C265.304 283.976 265.904 283.856 266.54 283.856C267.788 283.856 268.724 284.192 269.348 284.864C269.984 285.524 270.302 286.406 270.302 287.51V293H268.952L268.862 291.398C268.61 291.902 268.238 292.334 267.746 292.694C267.266 293.042 266.618 293.216 265.802 293.216ZM266.036 291.938C266.612 291.938 267.104 291.788 267.512 291.488C267.932 291.188 268.25 290.798 268.466 290.318C268.682 289.838 268.79 289.334 268.79 288.806V288.788H266.504C265.616 288.788 264.986 288.944 264.614 289.256C264.254 289.556 264.074 289.934 264.074 290.39C264.074 290.858 264.242 291.236 264.578 291.524C264.926 291.8 265.412 291.938 266.036 291.938ZM272.988 282.092C272.688 282.092 272.436 281.996 272.232 281.804C272.04 281.6 271.944 281.348 271.944 281.048C271.944 280.76 272.04 280.52 272.232 280.328C272.436 280.136 272.688 280.04 272.988 280.04C273.276 280.04 273.522 280.136 273.726 280.328C273.93 280.52 274.032 280.76 274.032 281.048C274.032 281.348 273.93 281.6 273.726 281.804C273.522 281.996 273.276 282.092 272.988 282.092ZM272.232 293V284.072H273.744V293H272.232ZM278.847 293.216C278.103 293.216 277.485 293.09 276.993 292.838C276.501 292.586 276.135 292.25 275.895 291.83C275.655 291.41 275.535 290.954 275.535 290.462C275.535 289.55 275.883 288.848 276.579 288.356C277.275 287.864 278.223 287.618 279.423 287.618H281.835V287.51C281.835 286.73 281.631 286.142 281.223 285.746C280.815 285.338 280.269 285.134 279.585 285.134C278.997 285.134 278.487 285.284 278.055 285.584C277.635 285.872 277.371 286.298 277.263 286.862H275.715C275.775 286.214 275.991 285.668 276.363 285.224C276.747 284.78 277.221 284.444 277.785 284.216C278.349 283.976 278.949 283.856 279.585 283.856C280.833 283.856 281.769 284.192 282.393 284.864C283.029 285.524 283.347 286.406 283.347 287.51V293H281.997L281.907 291.398C281.655 291.902 281.283 292.334 280.791 292.694C280.311 293.042 279.663 293.216 278.847 293.216ZM279.081 291.938C279.657 291.938 280.149 291.788 280.557 291.488C280.977 291.188 281.295 290.798 281.511 290.318C281.727 289.838 281.835 289.334 281.835 288.806V288.788H279.549C278.661 288.788 278.031 288.944 277.659 289.256C277.299 289.556 277.119 289.934 277.119 290.39C277.119 290.858 277.287 291.236 277.623 291.524C277.971 291.8 278.457 291.938 279.081 291.938ZM285.115 293V280.04H286.627V293H285.115ZM293.375 293.216C292.643 293.216 291.989 293.066 291.413 292.766C290.849 292.466 290.417 292.046 290.117 291.506L289.973 293H288.605V280.04H290.117V285.548C290.405 285.116 290.813 284.726 291.341 284.378C291.881 284.03 292.565 283.856 293.393 283.856C294.281 283.856 295.055 284.06 295.715 284.468C296.375 284.876 296.885 285.434 297.245 286.142C297.617 286.85 297.803 287.654 297.803 288.554C297.803 289.454 297.617 290.258 297.245 290.966C296.885 291.662 296.369 292.214 295.697 292.622C295.037 293.018 294.263 293.216 293.375 293.216ZM293.213 291.902C293.813 291.902 294.341 291.764 294.797 291.488C295.253 291.2 295.613 290.804 295.877 290.3C296.141 289.796 296.273 289.208 296.273 288.536C296.273 287.864 296.141 287.276 295.877 286.772C295.613 286.268 295.253 285.878 294.797 285.602C294.341 285.314 293.813 285.17 293.213 285.17C292.613 285.17 292.085 285.314 291.629 285.602C291.173 285.878 290.813 286.268 290.549 286.772C290.285 287.276 290.153 287.864 290.153 288.536C290.153 289.208 290.285 289.796 290.549 290.3C290.813 290.804 291.173 291.2 291.629 291.488C292.085 291.764 292.613 291.902 293.213 291.902ZM299.408 293V280.04H300.92V293H299.408ZM306.912 293.216C306.06 293.216 305.304 293.024 304.644 292.64C303.984 292.244 303.462 291.698 303.078 291.002C302.706 290.306 302.52 289.484 302.52 288.536C302.52 287.6 302.706 286.784 303.078 286.088C303.45 285.38 303.966 284.834 304.626 284.45C305.298 284.054 306.072 283.856 306.948 283.856C307.812 283.856 308.556 284.054 309.18 284.45C309.816 284.834 310.302 285.344 310.638 285.98C310.974 286.616 311.142 287.3 311.142 288.032C311.142 288.164 311.136 288.296 311.124 288.428C311.124 288.56 311.124 288.71 311.124 288.878H304.014C304.05 289.562 304.206 290.132 304.482 290.588C304.77 291.032 305.124 291.368 305.544 291.596C305.976 291.824 306.432 291.938 306.912 291.938C307.536 291.938 308.058 291.794 308.478 291.506C308.898 291.218 309.204 290.828 309.396 290.336H310.89C310.65 291.164 310.188 291.854 309.504 292.406C308.832 292.946 307.968 293.216 306.912 293.216ZM306.912 285.134C306.192 285.134 305.55 285.356 304.986 285.8C304.434 286.232 304.116 286.868 304.032 287.708H309.648C309.612 286.904 309.336 286.274 308.82 285.818C308.304 285.362 307.668 285.134 306.912 285.134Z" fill="#0F2137"/>
<defs>
<filter id="filter0_d_1_673" x="0" y="0" width="500" height="520" filterUnits="userSpaceOnUse" color-interpolation-filters="sRGB">
<feFlood flood-opacity="0" result="BackgroundImageFix"/>
<feColorMatrix in="SourceAlpha" type="matrix" values="0 0 0 0 0 0 0 0 0 0 0 0 0 0 0 0 0 0 127 0" result="hardAlpha"/>
<feOffset dy="25"/>
<feGaussianBlur stdDeviation="50"/>
<feColorMatrix type="matrix" values="0 0 0 0 0.269792 0 0 0 0 0.346104 0 0 0 0 0.616667 0 0 0 0.08 0"/>
<feBlend mode="normal" in2="BackgroundImageFix" result="effect1_dropShadow_1_673"/>
<feBlend mode="normal" in="SourceGraphic" in2="effect1_dropShadow_1_673" result="shape"/>
</filter>
</defs>
</svg>
