<svg width="500" height="520" viewBox="0 0 500 520" fill="none" xmlns="http://www.w3.org/2000/svg">
<g filter="url(#filter0_d_1_665)">
<rect x="100" y="75" width="300" height="320" rx="10" fill="white"/>
</g>
<path d="M184.161 225.792C180.465 225.792 177.249 225.168 174.513 223.92C171.777 222.624 169.641 220.824 168.105 218.52C166.617 216.216 165.873 213.528 165.873 210.456C165.873 207.192 166.785 204.24 168.609 201.6C170.433 198.96 173.145 196.848 176.745 195.264C175.305 193.584 174.273 192 173.649 190.512C173.025 189.024 172.713 187.44 172.713 185.76C172.713 183.456 173.289 181.416 174.441 179.64C175.593 177.816 177.225 176.376 179.337 175.32C181.497 174.264 184.065 173.736 187.041 173.736C190.065 173.736 192.633 174.288 194.745 175.392C196.857 176.496 198.441 177.984 199.497 179.856C200.601 181.728 201.105 183.816 201.009 186.12H192.225C192.225 184.344 191.697 183.024 190.641 182.16C189.633 181.248 188.409 180.792 186.969 180.792C185.337 180.792 184.017 181.248 183.009 182.16C182.049 183.072 181.569 184.248 181.569 185.688C181.569 186.888 181.953 188.112 182.721 189.36C183.489 190.608 184.617 192.048 186.105 193.68L200.217 207.648C201.225 206.016 202.281 204.12 203.385 201.96L204.969 198.792H214.401L211.881 203.688C209.961 207.576 208.041 210.864 206.121 213.552L217.713 225H206.697L201.081 219.384C198.633 221.64 196.017 223.272 193.233 224.28C190.497 225.288 187.473 225.792 184.161 225.792ZM174.801 209.88C174.801 212.232 175.665 214.224 177.393 215.856C179.169 217.44 181.521 218.232 184.449 218.232C188.625 218.232 192.249 216.744 195.321 213.768L182.001 200.592C179.553 201.648 177.729 202.968 176.529 204.552C175.377 206.136 174.801 207.912 174.801 209.88ZM254.294 225.864C250.982 225.864 247.982 225.288 245.294 224.136C242.606 222.936 240.446 221.112 238.814 218.664C237.182 216.216 236.318 213.144 236.222 209.448H245.294C245.342 211.896 246.134 213.96 247.67 215.64C249.254 217.272 251.462 218.088 254.294 218.088C256.982 218.088 259.046 217.344 260.486 215.856C261.926 214.368 262.646 212.496 262.646 210.24C262.646 207.6 261.686 205.608 259.766 204.264C257.894 202.872 255.47 202.176 252.494 202.176H248.75V194.616H252.566C255.014 194.616 257.054 194.04 258.686 192.888C260.318 191.736 261.134 190.032 261.134 187.776C261.134 185.904 260.51 184.416 259.262 183.312C258.062 182.16 256.382 181.584 254.222 181.584C251.87 181.584 250.022 182.28 248.678 183.672C247.382 185.064 246.662 186.768 246.518 188.784H237.518C237.71 184.128 239.318 180.456 242.342 177.768C245.414 175.08 249.374 173.736 254.222 173.736C257.678 173.736 260.582 174.36 262.934 175.608C265.334 176.808 267.134 178.416 268.334 180.432C269.582 182.448 270.206 184.68 270.206 187.128C270.206 189.96 269.414 192.36 267.83 194.328C266.294 196.248 264.374 197.544 262.07 198.216C264.902 198.792 267.206 200.184 268.982 202.392C270.758 204.552 271.646 207.288 271.646 210.6C271.646 213.384 270.974 215.928 269.63 218.232C268.286 220.536 266.318 222.384 263.726 223.776C261.182 225.168 258.038 225.864 254.294 225.864ZM279.197 225V174.6H290.141L306.197 206.568L322.037 174.6H332.981V225H323.765V190.224L309.725 217.8H302.453L288.413 190.224V225H279.197Z" fill="#E682FF"/>
<path opacity="0.7" d="M167.488 267.216C166.348 267.216 165.454 266.898 164.806 266.262C164.158 265.626 163.834 264.744 163.834 263.616H165.364C165.364 264.252 165.52 264.786 165.832 265.218C166.144 265.65 166.69 265.866 167.47 265.866C168.226 265.866 168.748 265.656 169.036 265.236C169.336 264.816 169.486 264.294 169.486 263.67V254.4H170.998V263.67C170.998 264.786 170.686 265.656 170.062 266.28C169.45 266.904 168.592 267.216 167.488 267.216ZM177.14 267.216C176.3 267.216 175.544 267.024 174.872 266.64C174.2 266.256 173.666 265.716 173.27 265.02C172.886 264.312 172.694 263.484 172.694 262.536C172.694 261.588 172.892 260.766 173.288 260.07C173.684 259.362 174.218 258.816 174.89 258.432C175.574 258.048 176.336 257.856 177.176 257.856C178.016 257.856 178.772 258.048 179.444 258.432C180.116 258.816 180.644 259.362 181.028 260.07C181.424 260.766 181.622 261.588 181.622 262.536C181.622 263.484 181.424 264.312 181.028 265.02C180.632 265.716 180.092 266.256 179.408 266.64C178.736 267.024 177.98 267.216 177.14 267.216ZM177.14 265.92C177.656 265.92 178.136 265.794 178.58 265.542C179.024 265.29 179.384 264.912 179.66 264.408C179.936 263.904 180.074 263.28 180.074 262.536C180.074 261.792 179.936 261.168 179.66 260.664C179.396 260.16 179.042 259.782 178.598 259.53C178.154 259.278 177.68 259.152 177.176 259.152C176.66 259.152 176.18 259.278 175.736 259.53C175.292 259.782 174.932 260.16 174.656 260.664C174.38 261.168 174.242 261.792 174.242 262.536C174.242 263.28 174.38 263.904 174.656 264.408C174.932 264.912 175.286 265.29 175.718 265.542C176.162 265.794 176.636 265.92 177.14 265.92ZM187.994 267.216C187.262 267.216 186.608 267.066 186.032 266.766C185.468 266.466 185.036 266.046 184.736 265.506L184.592 267H183.224V254.04H184.736V259.548C185.024 259.116 185.432 258.726 185.96 258.378C186.5 258.03 187.184 257.856 188.012 257.856C188.9 257.856 189.674 258.06 190.334 258.468C190.994 258.876 191.504 259.434 191.864 260.142C192.236 260.85 192.422 261.654 192.422 262.554C192.422 263.454 192.236 264.258 191.864 264.966C191.504 265.662 190.988 266.214 190.316 266.622C189.656 267.018 188.882 267.216 187.994 267.216ZM187.832 265.902C188.432 265.902 188.96 265.764 189.416 265.488C189.872 265.2 190.232 264.804 190.496 264.3C190.76 263.796 190.892 263.208 190.892 262.536C190.892 261.864 190.76 261.276 190.496 260.772C190.232 260.268 189.872 259.878 189.416 259.602C188.96 259.314 188.432 259.17 187.832 259.17C187.232 259.17 186.704 259.314 186.248 259.602C185.792 259.878 185.432 260.268 185.168 260.772C184.904 261.276 184.772 261.864 184.772 262.536C184.772 263.208 184.904 263.796 185.168 264.3C185.432 264.804 185.792 265.2 186.248 265.488C186.704 265.764 187.232 265.902 187.832 265.902ZM198.291 270.96V258.072H199.659L199.803 259.548C200.091 259.116 200.499 258.726 201.027 258.378C201.567 258.03 202.251 257.856 203.079 257.856C203.967 257.856 204.741 258.06 205.401 258.468C206.061 258.876 206.571 259.434 206.931 260.142C207.303 260.85 207.489 261.654 207.489 262.554C207.489 263.454 207.303 264.258 206.931 264.966C206.571 265.662 206.055 266.214 205.383 266.622C204.723 267.018 203.949 267.216 203.061 267.216C202.329 267.216 201.675 267.066 201.099 266.766C200.535 266.466 200.103 266.046 199.803 265.506V270.96H198.291ZM202.899 265.902C203.499 265.902 204.027 265.764 204.483 265.488C204.939 265.2 205.299 264.804 205.563 264.3C205.827 263.796 205.959 263.208 205.959 262.536C205.959 261.864 205.827 261.276 205.563 260.772C205.299 260.268 204.939 259.878 204.483 259.602C204.027 259.314 203.499 259.17 202.899 259.17C202.299 259.17 201.771 259.314 201.315 259.602C200.859 259.878 200.499 260.268 200.235 260.772C199.971 261.276 199.839 261.864 199.839 262.536C199.839 263.208 199.971 263.796 200.235 264.3C200.499 264.804 200.859 265.2 201.315 265.488C201.771 265.764 202.299 265.902 202.899 265.902ZM213.162 267.216C212.322 267.216 211.566 267.024 210.894 266.64C210.222 266.256 209.688 265.716 209.292 265.02C208.908 264.312 208.716 263.484 208.716 262.536C208.716 261.588 208.914 260.766 209.31 260.07C209.706 259.362 210.24 258.816 210.912 258.432C211.596 258.048 212.358 257.856 213.198 257.856C214.038 257.856 214.794 258.048 215.466 258.432C216.138 258.816 216.666 259.362 217.05 260.07C217.446 260.766 217.644 261.588 217.644 262.536C217.644 263.484 217.446 264.312 217.05 265.02C216.654 265.716 216.114 266.256 215.43 266.64C214.758 267.024 214.002 267.216 213.162 267.216ZM213.162 265.92C213.678 265.92 214.158 265.794 214.602 265.542C215.046 265.29 215.406 264.912 215.682 264.408C215.958 263.904 216.096 263.28 216.096 262.536C216.096 261.792 215.958 261.168 215.682 260.664C215.418 260.16 215.064 259.782 214.62 259.53C214.176 259.278 213.702 259.152 213.198 259.152C212.682 259.152 212.202 259.278 211.758 259.53C211.314 259.782 210.954 260.16 210.678 260.664C210.402 261.168 210.264 261.792 210.264 262.536C210.264 263.28 210.402 263.904 210.678 264.408C210.954 264.912 211.308 265.29 211.74 265.542C212.184 265.794 212.658 265.92 213.162 265.92ZM222.666 267.216C221.598 267.216 220.71 266.946 220.002 266.406C219.294 265.866 218.88 265.134 218.76 264.21H220.308C220.404 264.678 220.65 265.086 221.046 265.434C221.454 265.77 222 265.938 222.684 265.938C223.32 265.938 223.788 265.806 224.088 265.542C224.388 265.266 224.538 264.942 224.538 264.57C224.538 264.03 224.34 263.67 223.944 263.49C223.56 263.31 223.014 263.148 222.306 263.004C221.826 262.908 221.346 262.77 220.866 262.59C220.386 262.41 219.984 262.158 219.66 261.834C219.336 261.498 219.174 261.06 219.174 260.52C219.174 259.74 219.462 259.104 220.038 258.612C220.626 258.108 221.418 257.856 222.414 257.856C223.362 257.856 224.136 258.096 224.736 258.576C225.348 259.044 225.702 259.716 225.798 260.592H224.304C224.244 260.136 224.046 259.782 223.71 259.53C223.386 259.266 222.948 259.134 222.396 259.134C221.856 259.134 221.436 259.248 221.136 259.476C220.848 259.704 220.704 260.004 220.704 260.376C220.704 260.736 220.89 261.018 221.262 261.222C221.646 261.426 222.162 261.6 222.81 261.744C223.362 261.864 223.884 262.014 224.376 262.194C224.88 262.362 225.288 262.62 225.6 262.968C225.924 263.304 226.086 263.796 226.086 264.444C226.098 265.248 225.792 265.914 225.168 266.442C224.556 266.958 223.722 267.216 222.666 267.216ZM230.87 267C230.054 267 229.412 266.802 228.944 266.406C228.476 266.01 228.242 265.296 228.242 264.264V259.35H226.694V258.072H228.242L228.44 255.93H229.754V258.072H232.382V259.35H229.754V264.264C229.754 264.828 229.868 265.212 230.096 265.416C230.324 265.608 230.726 265.704 231.302 265.704H232.238V267H230.87ZM237.57 267.216C236.718 267.216 235.962 267.024 235.302 266.64C234.642 266.244 234.12 265.698 233.736 265.002C233.364 264.306 233.178 263.484 233.178 262.536C233.178 261.6 233.364 260.784 233.736 260.088C234.108 259.38 234.624 258.834 235.284 258.45C235.956 258.054 236.73 257.856 237.606 257.856C238.47 257.856 239.214 258.054 239.838 258.45C240.474 258.834 240.96 259.344 241.296 259.98C241.632 260.616 241.8 261.3 241.8 262.032C241.8 262.164 241.794 262.296 241.782 262.428C241.782 262.56 241.782 262.71 241.782 262.878H234.672C234.708 263.562 234.864 264.132 235.14 264.588C235.428 265.032 235.782 265.368 236.202 265.596C236.634 265.824 237.09 265.938 237.57 265.938C238.194 265.938 238.716 265.794 239.136 265.506C239.556 265.218 239.862 264.828 240.054 264.336H241.548C241.308 265.164 240.846 265.854 240.162 266.406C239.49 266.946 238.626 267.216 237.57 267.216ZM237.57 259.134C236.85 259.134 236.208 259.356 235.644 259.8C235.092 260.232 234.774 260.868 234.69 261.708H240.306C240.27 260.904 239.994 260.274 239.478 259.818C238.962 259.362 238.326 259.134 237.57 259.134ZM247.354 267.216C246.467 267.216 245.687 267.012 245.015 266.604C244.355 266.196 243.839 265.638 243.467 264.93C243.107 264.222 242.927 263.418 242.927 262.518C242.927 261.618 243.113 260.82 243.485 260.124C243.857 259.416 244.373 258.864 245.033 258.468C245.693 258.06 246.473 257.856 247.373 257.856C248.105 257.856 248.753 258.006 249.317 258.306C249.881 258.606 250.319 259.026 250.631 259.566V254.04H252.143V267H250.775L250.631 265.524C250.343 265.956 249.929 266.346 249.389 266.694C248.849 267.042 248.171 267.216 247.354 267.216ZM247.517 265.902C248.117 265.902 248.645 265.764 249.101 265.488C249.569 265.2 249.929 264.804 250.181 264.3C250.445 263.796 250.577 263.208 250.577 262.536C250.577 261.864 250.445 261.276 250.181 260.772C249.929 260.268 249.569 259.878 249.101 259.602C248.645 259.314 248.117 259.17 247.517 259.17C246.929 259.17 246.401 259.314 245.933 259.602C245.477 259.878 245.117 260.268 244.853 260.772C244.601 261.276 244.475 261.864 244.475 262.536C244.475 263.208 244.601 263.796 244.853 264.3C245.117 264.804 245.477 265.2 245.933 265.488C246.401 265.764 246.929 265.902 247.517 265.902ZM262.385 267.216C261.533 267.216 260.777 267.024 260.117 266.64C259.457 266.244 258.935 265.698 258.551 265.002C258.179 264.306 257.993 263.484 257.993 262.536C257.993 261.6 258.179 260.784 258.551 260.088C258.923 259.38 259.439 258.834 260.099 258.45C260.771 258.054 261.545 257.856 262.421 257.856C263.285 257.856 264.029 258.054 264.653 258.45C265.289 258.834 265.775 259.344 266.111 259.98C266.447 260.616 266.615 261.3 266.615 262.032C266.615 262.164 266.609 262.296 266.597 262.428C266.597 262.56 266.597 262.71 266.597 262.878H259.487C259.523 263.562 259.679 264.132 259.955 264.588C260.243 265.032 260.597 265.368 261.017 265.596C261.449 265.824 261.905 265.938 262.385 265.938C263.009 265.938 263.531 265.794 263.951 265.506C264.371 265.218 264.677 264.828 264.869 264.336H266.363C266.123 265.164 265.661 265.854 264.977 266.406C264.305 266.946 263.441 267.216 262.385 267.216ZM262.385 259.134C261.665 259.134 261.023 259.356 260.459 259.8C259.907 260.232 259.589 260.868 259.505 261.708H265.121C265.085 260.904 264.809 260.274 264.293 259.818C263.777 259.362 263.141 259.134 262.385 259.134ZM270.341 267L266.957 258.072H268.541L271.223 265.542L273.923 258.072H275.471L272.087 267H270.341ZM280.211 267.216C279.359 267.216 278.603 267.024 277.943 266.64C277.283 266.244 276.761 265.698 276.377 265.002C276.005 264.306 275.819 263.484 275.819 262.536C275.819 261.6 276.005 260.784 276.377 260.088C276.749 259.38 277.265 258.834 277.925 258.45C278.597 258.054 279.371 257.856 280.247 257.856C281.111 257.856 281.855 258.054 282.479 258.45C283.115 258.834 283.601 259.344 283.937 259.98C284.273 260.616 284.441 261.3 284.441 262.032C284.441 262.164 284.435 262.296 284.423 262.428C284.423 262.56 284.423 262.71 284.423 262.878H277.313C277.349 263.562 277.505 264.132 277.781 264.588C278.069 265.032 278.423 265.368 278.843 265.596C279.275 265.824 279.731 265.938 280.211 265.938C280.835 265.938 281.357 265.794 281.777 265.506C282.197 265.218 282.503 264.828 282.695 264.336H284.189C283.949 265.164 283.487 265.854 282.803 266.406C282.131 266.946 281.267 267.216 280.211 267.216ZM280.211 259.134C279.491 259.134 278.849 259.356 278.285 259.8C277.733 260.232 277.415 260.868 277.331 261.708H282.947C282.911 260.904 282.635 260.274 282.119 259.818C281.603 259.362 280.967 259.134 280.211 259.134ZM285.945 267V258.072H287.313L287.439 259.782C287.715 259.194 288.135 258.726 288.699 258.378C289.263 258.03 289.959 257.856 290.787 257.856V259.44H290.373C289.845 259.44 289.359 259.536 288.915 259.728C288.471 259.908 288.117 260.22 287.853 260.664C287.589 261.108 287.457 261.72 287.457 262.5V267H285.945ZM292.956 270.96L295.17 266.136H294.648L291.102 258.072H292.74L295.692 265.02L298.824 258.072H300.39L294.54 270.96H292.956ZM304.692 267.216C303.804 267.216 303.024 267.012 302.352 266.604C301.692 266.196 301.176 265.638 300.804 264.93C300.444 264.222 300.264 263.418 300.264 262.518C300.264 261.618 300.45 260.82 300.822 260.124C301.194 259.416 301.71 258.864 302.37 258.468C303.03 258.06 303.81 257.856 304.71 257.856C305.442 257.856 306.09 258.006 306.654 258.306C307.218 258.606 307.656 259.026 307.968 259.566V254.04H309.48V267H308.112L307.968 265.524C307.68 265.956 307.266 266.346 306.726 266.694C306.186 267.042 305.508 267.216 304.692 267.216ZM304.854 265.902C305.454 265.902 305.982 265.764 306.438 265.488C306.906 265.2 307.266 264.804 307.518 264.3C307.782 263.796 307.914 263.208 307.914 262.536C307.914 261.864 307.782 261.276 307.518 260.772C307.266 260.268 306.906 259.878 306.438 259.602C305.982 259.314 305.454 259.17 304.854 259.17C304.266 259.17 303.738 259.314 303.27 259.602C302.814 259.878 302.454 260.268 302.19 260.772C301.938 261.276 301.812 261.864 301.812 262.536C301.812 263.208 301.938 263.796 302.19 264.3C302.454 264.804 302.814 265.2 303.27 265.488C303.738 265.764 304.266 265.902 304.854 265.902ZM314.415 267.216C313.671 267.216 313.053 267.09 312.561 266.838C312.069 266.586 311.703 266.25 311.463 265.83C311.223 265.41 311.103 264.954 311.103 264.462C311.103 263.55 311.451 262.848 312.147 262.356C312.843 261.864 313.791 261.618 314.991 261.618H317.403V261.51C317.403 260.73 317.199 260.142 316.791 259.746C316.383 259.338 315.837 259.134 315.153 259.134C314.565 259.134 314.055 259.284 313.623 259.584C313.203 259.872 312.939 260.298 312.831 260.862H311.283C311.343 260.214 311.559 259.668 311.931 259.224C312.315 258.78 312.789 258.444 313.353 258.216C313.917 257.976 314.517 257.856 315.153 257.856C316.401 257.856 317.337 258.192 317.961 258.864C318.597 259.524 318.915 260.406 318.915 261.51V267H317.565L317.475 265.398C317.223 265.902 316.851 266.334 316.359 266.694C315.879 267.042 315.231 267.216 314.415 267.216ZM314.649 265.938C315.225 265.938 315.717 265.788 316.125 265.488C316.545 265.188 316.863 264.798 317.079 264.318C317.295 263.838 317.403 263.334 317.403 262.806V262.788H315.117C314.229 262.788 313.599 262.944 313.227 263.256C312.867 263.556 312.687 263.934 312.687 264.39C312.687 264.858 312.855 265.236 313.191 265.524C313.539 265.8 314.025 265.938 314.649 265.938ZM321.392 270.96L323.606 266.136H323.084L319.538 258.072H321.176L324.128 265.02L327.26 258.072H328.826L322.976 270.96H321.392ZM332.814 267.216C331.746 267.216 330.858 266.946 330.15 266.406C329.442 265.866 329.028 265.134 328.908 264.21H330.456C330.552 264.678 330.798 265.086 331.194 265.434C331.602 265.77 332.148 265.938 332.832 265.938C333.468 265.938 333.936 265.806 334.236 265.542C334.536 265.266 334.686 264.942 334.686 264.57C334.686 264.03 334.488 263.67 334.092 263.49C333.708 263.31 333.162 263.148 332.454 263.004C331.974 262.908 331.494 262.77 331.014 262.59C330.534 262.41 330.132 262.158 329.808 261.834C329.484 261.498 329.322 261.06 329.322 260.52C329.322 259.74 329.61 259.104 330.186 258.612C330.774 258.108 331.566 257.856 332.562 257.856C333.51 257.856 334.284 258.096 334.884 258.576C335.496 259.044 335.85 259.716 335.946 260.592H334.452C334.392 260.136 334.194 259.782 333.858 259.53C333.534 259.266 333.096 259.134 332.544 259.134C332.004 259.134 331.584 259.248 331.284 259.476C330.996 259.704 330.852 260.004 330.852 260.376C330.852 260.736 331.038 261.018 331.41 261.222C331.794 261.426 332.31 261.6 332.958 261.744C333.51 261.864 334.032 262.014 334.524 262.194C335.028 262.362 335.436 262.62 335.748 262.968C336.072 263.304 336.234 263.796 336.234 264.444C336.246 265.248 335.94 265.914 335.316 266.442C334.704 266.958 333.87 267.216 332.814 267.216ZM184.044 292L181.434 283.072H182.946L184.836 290.074L186.924 283.072H188.634L190.74 290.074L192.612 283.072H194.142L191.532 292H189.984L187.788 284.638L185.592 292H184.044ZM196.232 281.092C195.932 281.092 195.68 280.996 195.476 280.804C195.284 280.6 195.188 280.348 195.188 280.048C195.188 279.76 195.284 279.52 195.476 279.328C195.68 279.136 195.932 279.04 196.232 279.04C196.52 279.04 196.766 279.136 196.97 279.328C197.174 279.52 197.276 279.76 197.276 280.048C197.276 280.348 197.174 280.6 196.97 280.804C196.766 280.996 196.52 281.092 196.232 281.092ZM195.476 292V283.072H196.988V292H195.476ZM202.649 292C201.833 292 201.191 291.802 200.723 291.406C200.255 291.01 200.021 290.296 200.021 289.264V284.35H198.473V283.072H200.021L200.219 280.93H201.533V283.072H204.161V284.35H201.533V289.264C201.533 289.828 201.647 290.212 201.875 290.416C202.103 290.608 202.505 290.704 203.081 290.704H204.017V292H202.649ZM205.582 292V279.04H207.094V284.602C207.394 284.05 207.82 283.624 208.372 283.324C208.924 283.012 209.524 282.856 210.172 282.856C211.204 282.856 212.032 283.18 212.656 283.828C213.28 284.464 213.592 285.448 213.592 286.78V292H212.098V286.942C212.098 285.082 211.348 284.152 209.848 284.152C209.068 284.152 208.414 284.434 207.886 284.998C207.358 285.55 207.094 286.342 207.094 287.374V292H205.582ZM231.236 295.96V290.524C230.948 290.956 230.534 291.346 229.994 291.694C229.454 292.042 228.776 292.216 227.96 292.216C227.072 292.216 226.292 292.012 225.62 291.604C224.96 291.196 224.444 290.638 224.072 289.93C223.712 289.222 223.532 288.418 223.532 287.518C223.532 286.618 223.718 285.82 224.09 285.124C224.462 284.416 224.978 283.864 225.638 283.468C226.298 283.06 227.078 282.856 227.978 282.856C228.71 282.856 229.358 283.006 229.922 283.306C230.486 283.606 230.924 284.026 231.236 284.566L231.38 283.072H232.748V295.96H231.236ZM228.122 290.902C228.722 290.902 229.25 290.764 229.706 290.488C230.174 290.2 230.534 289.804 230.786 289.3C231.05 288.796 231.182 288.208 231.182 287.536C231.182 286.864 231.05 286.276 230.786 285.772C230.534 285.268 230.174 284.878 229.706 284.602C229.25 284.314 228.722 284.17 228.122 284.17C227.534 284.17 227.006 284.314 226.538 284.602C226.082 284.878 225.722 285.268 225.458 285.772C225.206 286.276 225.08 286.864 225.08 287.536C225.08 288.208 225.206 288.796 225.458 289.3C225.722 289.804 226.082 290.2 226.538 290.488C227.006 290.764 227.534 290.902 228.122 290.902ZM242.525 283.072V292H241.157L241.067 290.398C240.779 290.962 240.365 291.406 239.825 291.73C239.285 292.054 238.673 292.216 237.989 292.216C236.933 292.216 236.087 291.898 235.451 291.262C234.827 290.614 234.515 289.624 234.515 288.292V283.072H236.027V288.13C236.027 289.99 236.795 290.92 238.331 290.92C239.099 290.92 239.735 290.644 240.239 290.092C240.755 289.528 241.013 288.73 241.013 287.698V283.072H242.525ZM247.483 292.216C246.739 292.216 246.121 292.09 245.629 291.838C245.137 291.586 244.771 291.25 244.531 290.83C244.291 290.41 244.171 289.954 244.171 289.462C244.171 288.55 244.519 287.848 245.215 287.356C245.911 286.864 246.859 286.618 248.059 286.618H250.471V286.51C250.471 285.73 250.267 285.142 249.859 284.746C249.451 284.338 248.905 284.134 248.221 284.134C247.633 284.134 247.123 284.284 246.691 284.584C246.271 284.872 246.007 285.298 245.899 285.862H244.351C244.411 285.214 244.627 284.668 244.999 284.224C245.383 283.78 245.857 283.444 246.421 283.216C246.985 282.976 247.585 282.856 248.221 282.856C249.469 282.856 250.405 283.192 251.029 283.864C251.665 284.524 251.983 285.406 251.983 286.51V292H250.633L250.543 290.398C250.291 290.902 249.919 291.334 249.427 291.694C248.947 292.042 248.299 292.216 247.483 292.216ZM247.717 290.938C248.293 290.938 248.785 290.788 249.193 290.488C249.613 290.188 249.931 289.798 250.147 289.318C250.363 288.838 250.471 288.334 250.471 287.806V287.788H248.185C247.297 287.788 246.667 287.944 246.295 288.256C245.935 288.556 245.755 288.934 245.755 289.39C245.755 289.858 245.923 290.236 246.259 290.524C246.607 290.8 247.093 290.938 247.717 290.938ZM253.752 292V279.04H255.264V292H253.752ZM258.16 281.092C257.86 281.092 257.608 280.996 257.404 280.804C257.212 280.6 257.116 280.348 257.116 280.048C257.116 279.76 257.212 279.52 257.404 279.328C257.608 279.136 257.86 279.04 258.16 279.04C258.448 279.04 258.694 279.136 258.898 279.328C259.102 279.52 259.204 279.76 259.204 280.048C259.204 280.348 259.102 280.6 258.898 280.804C258.694 280.996 258.448 281.092 258.16 281.092ZM257.404 292V283.072H258.916V292H257.404ZM261.535 292V284.35H260.185V283.072H261.535V281.524C261.535 280.66 261.751 280.03 262.183 279.634C262.615 279.238 263.245 279.04 264.073 279.04H264.973V280.336H264.307C263.851 280.336 263.527 280.432 263.335 280.624C263.143 280.804 263.047 281.116 263.047 281.56V283.072H268.591V292H267.079V284.35H263.047V292H261.535ZM267.853 281.362C267.565 281.362 267.319 281.266 267.115 281.074C266.911 280.87 266.809 280.618 266.809 280.318C266.809 280.03 266.911 279.79 267.115 279.598C267.319 279.406 267.565 279.31 267.853 279.31C268.153 279.31 268.399 279.406 268.591 279.598C268.795 279.79 268.897 280.03 268.897 280.318C268.897 280.618 268.795 280.87 268.591 281.074C268.399 281.266 268.153 281.362 267.853 281.362ZM274.866 292.216C274.014 292.216 273.246 292.024 272.562 291.64C271.89 291.244 271.356 290.698 270.96 290.002C270.576 289.294 270.384 288.472 270.384 287.536C270.384 286.6 270.576 285.784 270.96 285.088C271.356 284.38 271.89 283.834 272.562 283.45C273.246 283.054 274.014 282.856 274.866 282.856C275.922 282.856 276.81 283.132 277.53 283.684C278.262 284.236 278.724 284.974 278.916 285.898H277.368C277.248 285.346 276.954 284.92 276.486 284.62C276.018 284.308 275.472 284.152 274.848 284.152C274.344 284.152 273.87 284.278 273.426 284.53C272.982 284.782 272.622 285.16 272.346 285.664C272.07 286.168 271.932 286.792 271.932 287.536C271.932 288.28 272.07 288.904 272.346 289.408C272.622 289.912 272.982 290.296 273.426 290.56C273.87 290.812 274.344 290.938 274.848 290.938C275.472 290.938 276.018 290.788 276.486 290.488C276.954 290.176 277.248 289.738 277.368 289.174H278.916C278.736 290.074 278.28 290.806 277.548 291.37C276.816 291.934 275.922 292.216 274.866 292.216ZM283.497 292.216C282.753 292.216 282.135 292.09 281.643 291.838C281.151 291.586 280.785 291.25 280.545 290.83C280.305 290.41 280.185 289.954 280.185 289.462C280.185 288.55 280.533 287.848 281.229 287.356C281.925 286.864 282.873 286.618 284.073 286.618H286.485V286.51C286.485 285.73 286.281 285.142 285.873 284.746C285.465 284.338 284.919 284.134 284.235 284.134C283.647 284.134 283.137 284.284 282.705 284.584C282.285 284.872 282.021 285.298 281.913 285.862H280.365C280.425 285.214 280.641 284.668 281.013 284.224C281.397 283.78 281.871 283.444 282.435 283.216C282.999 282.976 283.599 282.856 284.235 282.856C285.483 282.856 286.419 283.192 287.043 283.864C287.679 284.524 287.997 285.406 287.997 286.51V292H286.647L286.557 290.398C286.305 290.902 285.933 291.334 285.441 291.694C284.961 292.042 284.313 292.216 283.497 292.216ZM283.731 290.938C284.307 290.938 284.799 290.788 285.207 290.488C285.627 290.188 285.945 289.798 286.161 289.318C286.377 288.838 286.485 288.334 286.485 287.806V287.788H284.199C283.311 287.788 282.681 287.944 282.309 288.256C281.949 288.556 281.769 288.934 281.769 289.39C281.769 289.858 281.937 290.236 282.273 290.524C282.621 290.8 283.107 290.938 283.731 290.938ZM293.047 292C292.231 292 291.589 291.802 291.121 291.406C290.653 291.01 290.419 290.296 290.419 289.264V284.35H288.871V283.072H290.419L290.617 280.93H291.931V283.072H294.559V284.35H291.931V289.264C291.931 289.828 292.045 290.212 292.273 290.416C292.501 290.608 292.903 290.704 293.479 290.704H294.415V292H293.047ZM296.898 281.092C296.598 281.092 296.346 280.996 296.142 280.804C295.95 280.6 295.854 280.348 295.854 280.048C295.854 279.76 295.95 279.52 296.142 279.328C296.346 279.136 296.598 279.04 296.898 279.04C297.186 279.04 297.432 279.136 297.636 279.328C297.84 279.52 297.942 279.76 297.942 280.048C297.942 280.348 297.84 280.6 297.636 280.804C297.432 280.996 297.186 281.092 296.898 281.092ZM296.142 292V283.072H297.654V292H296.142ZM303.855 292.216C303.015 292.216 302.259 292.024 301.587 291.64C300.915 291.256 300.381 290.716 299.985 290.02C299.601 289.312 299.409 288.484 299.409 287.536C299.409 286.588 299.607 285.766 300.003 285.07C300.399 284.362 300.933 283.816 301.605 283.432C302.289 283.048 303.051 282.856 303.891 282.856C304.731 282.856 305.487 283.048 306.159 283.432C306.831 283.816 307.359 284.362 307.743 285.07C308.139 285.766 308.337 286.588 308.337 287.536C308.337 288.484 308.139 289.312 307.743 290.02C307.347 290.716 306.807 291.256 306.123 291.64C305.451 292.024 304.695 292.216 303.855 292.216ZM303.855 290.92C304.371 290.92 304.851 290.794 305.295 290.542C305.739 290.29 306.099 289.912 306.375 289.408C306.651 288.904 306.789 288.28 306.789 287.536C306.789 286.792 306.651 286.168 306.375 285.664C306.111 285.16 305.757 284.782 305.313 284.53C304.869 284.278 304.395 284.152 303.891 284.152C303.375 284.152 302.895 284.278 302.451 284.53C302.007 284.782 301.647 285.16 301.371 285.664C301.095 286.168 300.957 286.792 300.957 287.536C300.957 288.28 301.095 288.904 301.371 289.408C301.647 289.912 302.001 290.29 302.433 290.542C302.877 290.794 303.351 290.92 303.855 290.92ZM309.939 292V283.072H311.307L311.397 284.674C311.685 284.11 312.099 283.666 312.639 283.342C313.179 283.018 313.791 282.856 314.475 282.856C315.531 282.856 316.371 283.18 316.995 283.828C317.631 284.464 317.949 285.448 317.949 286.78V292H316.437V286.942C316.437 285.082 315.669 284.152 314.133 284.152C313.365 284.152 312.723 284.434 312.207 284.998C311.703 285.55 311.451 286.342 311.451 287.374V292H309.939Z" fill="#0F2137"/>
<defs>
<filter id="filter0_d_1_665" x="0" y="0" width="500" height="520" filterUnits="userSpaceOnUse" color-interpolation-filters="sRGB">
<feFlood flood-opacity="0" result="BackgroundImageFix"/>
<feColorMatrix in="SourceAlpha" type="matrix" values="0 0 0 0 0 0 0 0 0 0 0 0 0 0 0 0 0 0 127 0" result="hardAlpha"/>
<feOffset dy="25"/>
<feGaussianBlur stdDeviation="50"/>
<feColorMatrix type="matrix" values="0 0 0 0 0.269792 0 0 0 0 0.346104 0 0 0 0 0.616667 0 0 0 0.08 0"/>
<feBlend mode="normal" in2="BackgroundImageFix" result="effect1_dropShadow_1_665"/>
<feBlend mode="normal" in="SourceGraphic" in2="effect1_dropShadow_1_665" result="shape"/>
</filter>
</defs>
</svg>
