<svg width="500" height="520" viewBox="0 0 500 520" fill="none" xmlns="http://www.w3.org/2000/svg">
<g filter="url(#filter0_d_1_677)">
<rect x="100" y="75" width="300" height="320" rx="10" fill="white"/>
</g>
<path d="M184.016 225.864C180.56 225.864 177.44 225.264 174.656 224.064C171.872 222.816 169.64 221.064 167.96 218.808C166.328 216.552 165.512 213.936 165.512 210.96C165.512 207.888 166.304 205.2 167.888 202.896C169.52 200.592 171.656 198.936 174.296 197.928C171.992 196.92 170.168 195.48 168.824 193.608C167.48 191.688 166.808 189.552 166.808 187.2C166.808 184.8 167.456 182.592 168.752 180.576C170.048 178.512 171.968 176.856 174.512 175.608C177.104 174.36 180.272 173.736 184.016 173.736C187.76 173.736 190.904 174.36 193.448 175.608C195.992 176.856 197.912 178.512 199.208 180.576C200.504 182.592 201.152 184.8 201.152 187.2C201.152 189.504 200.456 191.64 199.064 193.608C197.72 195.528 195.92 196.968 193.664 197.928C196.352 198.936 198.488 200.592 200.072 202.896C201.656 205.2 202.448 207.888 202.448 210.96C202.448 213.936 201.632 216.552 200 218.808C198.368 221.064 196.136 222.816 193.304 224.064C190.52 225.264 187.424 225.864 184.016 225.864ZM184.016 195.192C186.512 195.192 188.48 194.544 189.92 193.248C191.36 191.952 192.08 190.296 192.08 188.28C192.08 186.072 191.36 184.344 189.92 183.096C188.528 181.848 186.56 181.224 184.016 181.224C181.424 181.224 179.432 181.848 178.04 183.096C176.648 184.344 175.952 186.072 175.952 188.28C175.952 190.344 176.648 192.024 178.04 193.32C179.48 194.568 181.472 195.192 184.016 195.192ZM184.016 218.16C187.088 218.16 189.416 217.416 191 215.928C192.584 214.392 193.376 212.472 193.376 210.168C193.376 207.624 192.536 205.632 190.856 204.192C189.224 202.752 186.944 202.032 184.016 202.032C181.088 202.032 178.76 202.752 177.032 204.192C175.352 205.632 174.512 207.624 174.512 210.168C174.512 212.472 175.304 214.392 176.888 215.928C178.52 217.416 180.896 218.16 184.016 218.16ZM230.677 225.864C226.021 225.864 222.037 224.784 218.725 222.624C215.413 220.416 212.845 217.368 211.021 213.48C209.245 209.544 208.357 204.984 208.357 199.8C208.357 194.664 209.245 190.128 211.021 186.192C212.845 182.256 215.413 179.208 218.725 177.048C222.037 174.84 226.021 173.736 230.677 173.736C235.333 173.736 239.317 174.84 242.629 177.048C245.941 179.208 248.485 182.256 250.261 186.192C252.085 190.128 252.997 194.664 252.997 199.8C252.997 204.984 252.085 209.544 250.261 213.48C248.485 217.368 245.941 220.416 242.629 222.624C239.317 224.784 235.333 225.864 230.677 225.864ZM230.677 217.584C234.469 217.584 237.565 216 239.965 212.832C242.365 209.664 243.565 205.32 243.565 199.8C243.565 194.28 242.365 189.936 239.965 186.768C237.565 183.6 234.469 182.016 230.677 182.016C226.837 182.016 223.717 183.6 221.317 186.768C218.965 189.936 217.789 194.28 217.789 199.8C217.789 205.32 218.965 209.664 221.317 212.832C223.717 216 226.837 217.584 230.677 217.584ZM259.63 225V174.6H268.846V194.976L287.494 174.6H298.87L280.294 194.616L299.374 225H288.07L273.67 201.672L268.846 206.928V225H259.63ZM299.735 208.008V200.304H313.271V187.848H321.119V200.304H334.583V208.008H321.119V220.464H313.271V208.008H299.735Z" fill="#EF9E48"/>
<path opacity="0.7" d="M177.965 267.018L174.509 254.4H176.129L178.847 265.218L181.943 254.4H183.617L186.623 265.218L189.377 254.4H190.997L187.469 267H185.741L182.735 256.596L179.657 267L177.965 267.018ZM195.285 267.216C194.433 267.216 193.677 267.024 193.017 266.64C192.357 266.244 191.835 265.698 191.451 265.002C191.079 264.306 190.893 263.484 190.893 262.536C190.893 261.6 191.079 260.784 191.451 260.088C191.823 259.38 192.339 258.834 192.999 258.45C193.671 258.054 194.445 257.856 195.321 257.856C196.185 257.856 196.929 258.054 197.553 258.45C198.189 258.834 198.675 259.344 199.011 259.98C199.347 260.616 199.515 261.3 199.515 262.032C199.515 262.164 199.509 262.296 199.497 262.428C199.497 262.56 199.497 262.71 199.497 262.878H192.387C192.423 263.562 192.579 264.132 192.855 264.588C193.143 265.032 193.497 265.368 193.917 265.596C194.349 265.824 194.805 265.938 195.285 265.938C195.909 265.938 196.431 265.794 196.851 265.506C197.271 265.218 197.577 264.828 197.769 264.336H199.263C199.023 265.164 198.561 265.854 197.877 266.406C197.205 266.946 196.341 267.216 195.285 267.216ZM195.285 259.134C194.565 259.134 193.923 259.356 193.359 259.8C192.807 260.232 192.489 260.868 192.405 261.708H198.021C197.985 260.904 197.709 260.274 197.193 259.818C196.677 259.362 196.041 259.134 195.285 259.134ZM205.283 267V254.04H206.795V259.602C207.095 259.05 207.521 258.624 208.073 258.324C208.625 258.012 209.225 257.856 209.873 257.856C210.905 257.856 211.733 258.18 212.357 258.828C212.981 259.464 213.293 260.448 213.293 261.78V267H211.799V261.942C211.799 260.082 211.049 259.152 209.549 259.152C208.769 259.152 208.115 259.434 207.587 259.998C207.059 260.55 206.795 261.342 206.795 262.374V267H205.283ZM218.054 267.216C217.31 267.216 216.692 267.09 216.2 266.838C215.708 266.586 215.342 266.25 215.102 265.83C214.862 265.41 214.742 264.954 214.742 264.462C214.742 263.55 215.09 262.848 215.786 262.356C216.482 261.864 217.43 261.618 218.63 261.618H221.042V261.51C221.042 260.73 220.838 260.142 220.43 259.746C220.022 259.338 219.476 259.134 218.792 259.134C218.204 259.134 217.694 259.284 217.262 259.584C216.842 259.872 216.578 260.298 216.47 260.862H214.922C214.982 260.214 215.198 259.668 215.57 259.224C215.954 258.78 216.428 258.444 216.992 258.216C217.556 257.976 218.156 257.856 218.792 257.856C220.04 257.856 220.976 258.192 221.6 258.864C222.236 259.524 222.554 260.406 222.554 261.51V267H221.204L221.114 265.398C220.862 265.902 220.49 266.334 219.998 266.694C219.518 267.042 218.87 267.216 218.054 267.216ZM218.288 265.938C218.864 265.938 219.356 265.788 219.764 265.488C220.184 265.188 220.502 264.798 220.718 264.318C220.934 263.838 221.042 263.334 221.042 262.806V262.788H218.756C217.868 262.788 217.238 262.944 216.866 263.256C216.506 263.556 216.326 263.934 216.326 264.39C216.326 264.858 216.494 265.236 216.83 265.524C217.178 265.8 217.664 265.938 218.288 265.938ZM226.562 267L223.178 258.072H224.762L227.444 265.542L230.144 258.072H231.692L228.308 267H226.562ZM236.432 267.216C235.58 267.216 234.824 267.024 234.164 266.64C233.504 266.244 232.982 265.698 232.598 265.002C232.226 264.306 232.04 263.484 232.04 262.536C232.04 261.6 232.226 260.784 232.598 260.088C232.97 259.38 233.486 258.834 234.146 258.45C234.818 258.054 235.592 257.856 236.468 257.856C237.332 257.856 238.076 258.054 238.7 258.45C239.336 258.834 239.822 259.344 240.158 259.98C240.494 260.616 240.662 261.3 240.662 262.032C240.662 262.164 240.656 262.296 240.644 262.428C240.644 262.56 240.644 262.71 240.644 262.878H233.534C233.57 263.562 233.726 264.132 234.002 264.588C234.29 265.032 234.644 265.368 235.064 265.596C235.496 265.824 235.952 265.938 236.432 265.938C237.056 265.938 237.578 265.794 237.998 265.506C238.418 265.218 238.724 264.828 238.916 264.336H240.41C240.17 265.164 239.708 265.854 239.024 266.406C238.352 266.946 237.488 267.216 236.432 267.216ZM236.432 259.134C235.712 259.134 235.07 259.356 234.506 259.8C233.954 260.232 233.636 260.868 233.552 261.708H239.168C239.132 260.904 238.856 260.274 238.34 259.818C237.824 259.362 237.188 259.134 236.432 259.134ZM246.43 267V258.072H247.798L247.906 259.368C248.194 258.888 248.578 258.516 249.058 258.252C249.538 257.988 250.078 257.856 250.678 257.856C251.386 257.856 251.992 258 252.496 258.288C253.012 258.576 253.408 259.014 253.684 259.602C253.996 259.062 254.422 258.636 254.962 258.324C255.514 258.012 256.108 257.856 256.744 257.856C257.812 257.856 258.664 258.18 259.3 258.828C259.936 259.464 260.254 260.448 260.254 261.78V267H258.76V261.942C258.76 261.018 258.574 260.322 258.202 259.854C257.83 259.386 257.296 259.152 256.6 259.152C255.88 259.152 255.28 259.434 254.8 259.998C254.332 260.55 254.098 261.342 254.098 262.374V267H252.586V261.942C252.586 261.018 252.4 260.322 252.028 259.854C251.656 259.386 251.122 259.152 250.426 259.152C249.718 259.152 249.124 259.434 248.644 259.998C248.176 260.55 247.942 261.342 247.942 262.374V267H246.43ZM266.099 267.216C265.259 267.216 264.503 267.024 263.831 266.64C263.159 266.256 262.625 265.716 262.229 265.02C261.845 264.312 261.653 263.484 261.653 262.536C261.653 261.588 261.851 260.766 262.247 260.07C262.643 259.362 263.177 258.816 263.849 258.432C264.533 258.048 265.295 257.856 266.135 257.856C266.975 257.856 267.731 258.048 268.403 258.432C269.075 258.816 269.603 259.362 269.987 260.07C270.383 260.766 270.581 261.588 270.581 262.536C270.581 263.484 270.383 264.312 269.987 265.02C269.591 265.716 269.051 266.256 268.367 266.64C267.695 267.024 266.939 267.216 266.099 267.216ZM266.099 265.92C266.615 265.92 267.095 265.794 267.539 265.542C267.983 265.29 268.343 264.912 268.619 264.408C268.895 263.904 269.033 263.28 269.033 262.536C269.033 261.792 268.895 261.168 268.619 260.664C268.355 260.16 268.001 259.782 267.557 259.53C267.113 259.278 266.639 259.152 266.135 259.152C265.619 259.152 265.139 259.278 264.695 259.53C264.251 259.782 263.891 260.16 263.615 260.664C263.339 261.168 263.201 261.792 263.201 262.536C263.201 263.28 263.339 263.904 263.615 264.408C263.891 264.912 264.245 265.29 264.677 265.542C265.121 265.794 265.595 265.92 266.099 265.92ZM272.183 267V258.072H273.551L273.677 259.782C273.953 259.194 274.373 258.726 274.937 258.378C275.501 258.03 276.197 257.856 277.025 257.856V259.44H276.611C276.083 259.44 275.597 259.536 275.153 259.728C274.709 259.908 274.355 260.22 274.091 260.664C273.827 261.108 273.695 261.72 273.695 262.5V267H272.183ZM281.902 267.216C281.05 267.216 280.294 267.024 279.634 266.64C278.974 266.244 278.452 265.698 278.068 265.002C277.696 264.306 277.51 263.484 277.51 262.536C277.51 261.6 277.696 260.784 278.068 260.088C278.44 259.38 278.956 258.834 279.616 258.45C280.288 258.054 281.062 257.856 281.938 257.856C282.802 257.856 283.546 258.054 284.17 258.45C284.806 258.834 285.292 259.344 285.628 259.98C285.964 260.616 286.132 261.3 286.132 262.032C286.132 262.164 286.126 262.296 286.114 262.428C286.114 262.56 286.114 262.71 286.114 262.878H279.004C279.04 263.562 279.196 264.132 279.472 264.588C279.76 265.032 280.114 265.368 280.534 265.596C280.966 265.824 281.422 265.938 281.902 265.938C282.526 265.938 283.048 265.794 283.468 265.506C283.888 265.218 284.194 264.828 284.386 264.336H285.88C285.64 265.164 285.178 265.854 284.494 266.406C283.822 266.946 282.958 267.216 281.902 267.216ZM281.902 259.134C281.182 259.134 280.54 259.356 279.976 259.8C279.424 260.232 279.106 260.868 279.022 261.708H284.638C284.602 260.904 284.326 260.274 283.81 259.818C283.294 259.362 282.658 259.134 281.902 259.134ZM295.428 267C294.612 267 293.97 266.802 293.502 266.406C293.034 266.01 292.8 265.296 292.8 264.264V259.35H291.252V258.072H292.8L292.998 255.93H294.312V258.072H296.94V259.35H294.312V264.264C294.312 264.828 294.426 265.212 294.654 265.416C294.882 265.608 295.284 265.704 295.86 265.704H296.796V267H295.428ZM298.361 267V254.04H299.873V259.602C300.173 259.05 300.599 258.624 301.151 258.324C301.703 258.012 302.303 257.856 302.951 257.856C303.983 257.856 304.811 258.18 305.435 258.828C306.059 259.464 306.371 260.448 306.371 261.78V267H304.877V261.942C304.877 260.082 304.127 259.152 302.627 259.152C301.847 259.152 301.193 259.434 300.665 259.998C300.137 260.55 299.873 261.342 299.873 262.374V267H298.361ZM311.132 267.216C310.388 267.216 309.77 267.09 309.278 266.838C308.786 266.586 308.42 266.25 308.18 265.83C307.94 265.41 307.82 264.954 307.82 264.462C307.82 263.55 308.168 262.848 308.864 262.356C309.56 261.864 310.508 261.618 311.708 261.618H314.12V261.51C314.12 260.73 313.916 260.142 313.508 259.746C313.1 259.338 312.554 259.134 311.87 259.134C311.282 259.134 310.772 259.284 310.34 259.584C309.92 259.872 309.656 260.298 309.548 260.862H308C308.06 260.214 308.276 259.668 308.648 259.224C309.032 258.78 309.506 258.444 310.07 258.216C310.634 257.976 311.234 257.856 311.87 257.856C313.118 257.856 314.054 258.192 314.678 258.864C315.314 259.524 315.632 260.406 315.632 261.51V267H314.282L314.192 265.398C313.94 265.902 313.568 266.334 313.076 266.694C312.596 267.042 311.948 267.216 311.132 267.216ZM311.366 265.938C311.942 265.938 312.434 265.788 312.842 265.488C313.262 265.188 313.58 264.798 313.796 264.318C314.012 263.838 314.12 263.334 314.12 262.806V262.788H311.834C310.946 262.788 310.316 262.944 309.944 263.256C309.584 263.556 309.404 263.934 309.404 264.39C309.404 264.858 309.572 265.236 309.908 265.524C310.256 265.8 310.742 265.938 311.366 265.938ZM317.4 267V258.072H318.768L318.858 259.674C319.146 259.11 319.56 258.666 320.1 258.342C320.64 258.018 321.252 257.856 321.936 257.856C322.992 257.856 323.832 258.18 324.456 258.828C325.092 259.464 325.41 260.448 325.41 261.78V267H323.898V261.942C323.898 260.082 323.13 259.152 321.594 259.152C320.826 259.152 320.184 259.434 319.668 259.998C319.164 260.55 318.912 261.342 318.912 262.374V267H317.4ZM219.577 292.216C218.509 292.216 217.621 291.946 216.913 291.406C216.205 290.866 215.791 290.134 215.671 289.21H217.219C217.315 289.678 217.561 290.086 217.957 290.434C218.365 290.77 218.911 290.938 219.595 290.938C220.231 290.938 220.699 290.806 220.999 290.542C221.299 290.266 221.449 289.942 221.449 289.57C221.449 289.03 221.251 288.67 220.855 288.49C220.471 288.31 219.925 288.148 219.217 288.004C218.737 287.908 218.257 287.77 217.777 287.59C217.297 287.41 216.895 287.158 216.571 286.834C216.247 286.498 216.085 286.06 216.085 285.52C216.085 284.74 216.373 284.104 216.949 283.612C217.537 283.108 218.329 282.856 219.325 282.856C220.273 282.856 221.047 283.096 221.647 283.576C222.259 284.044 222.613 284.716 222.709 285.592H221.215C221.155 285.136 220.957 284.782 220.621 284.53C220.297 284.266 219.859 284.134 219.307 284.134C218.767 284.134 218.347 284.248 218.047 284.476C217.759 284.704 217.615 285.004 217.615 285.376C217.615 285.736 217.801 286.018 218.173 286.222C218.557 286.426 219.073 286.6 219.721 286.744C220.273 286.864 220.795 287.014 221.287 287.194C221.791 287.362 222.199 287.62 222.511 287.968C222.835 288.304 222.997 288.796 222.997 289.444C223.009 290.248 222.703 290.914 222.079 291.442C221.467 291.958 220.633 292.216 219.577 292.216ZM227.781 292C226.965 292 226.323 291.802 225.855 291.406C225.387 291.01 225.153 290.296 225.153 289.264V284.35H223.605V283.072H225.153L225.351 280.93H226.665V283.072H229.293V284.35H226.665V289.264C226.665 289.828 226.779 290.212 227.007 290.416C227.235 290.608 227.637 290.704 228.213 290.704H229.149V292H227.781ZM238.526 283.072V292H237.158L237.068 290.398C236.78 290.962 236.366 291.406 235.826 291.73C235.286 292.054 234.674 292.216 233.99 292.216C232.934 292.216 232.088 291.898 231.452 291.262C230.828 290.614 230.516 289.624 230.516 288.292V283.072H232.028V288.13C232.028 289.99 232.796 290.92 234.332 290.92C235.1 290.92 235.736 290.644 236.24 290.092C236.756 289.528 237.014 288.73 237.014 287.698V283.072H238.526ZM244.564 292.216C243.676 292.216 242.896 292.012 242.224 291.604C241.564 291.196 241.048 290.638 240.676 289.93C240.316 289.222 240.136 288.418 240.136 287.518C240.136 286.618 240.322 285.82 240.694 285.124C241.066 284.416 241.582 283.864 242.242 283.468C242.902 283.06 243.682 282.856 244.582 282.856C245.314 282.856 245.962 283.006 246.526 283.306C247.09 283.606 247.528 284.026 247.84 284.566V279.04H249.352V292H247.984L247.84 290.524C247.552 290.956 247.138 291.346 246.598 291.694C246.058 292.042 245.38 292.216 244.564 292.216ZM244.726 290.902C245.326 290.902 245.854 290.764 246.31 290.488C246.778 290.2 247.138 289.804 247.39 289.3C247.654 288.796 247.786 288.208 247.786 287.536C247.786 286.864 247.654 286.276 247.39 285.772C247.138 285.268 246.778 284.878 246.31 284.602C245.854 284.314 245.326 284.17 244.726 284.17C244.138 284.17 243.61 284.314 243.142 284.602C242.686 284.878 242.326 285.268 242.062 285.772C241.81 286.276 241.684 286.864 241.684 287.536C241.684 288.208 241.81 288.796 242.062 289.3C242.326 289.804 242.686 290.2 243.142 290.488C243.61 290.764 244.138 290.902 244.726 290.902ZM255.331 292.216C254.479 292.216 253.723 292.024 253.063 291.64C252.403 291.244 251.881 290.698 251.497 290.002C251.125 289.306 250.939 288.484 250.939 287.536C250.939 286.6 251.125 285.784 251.497 285.088C251.869 284.38 252.385 283.834 253.045 283.45C253.717 283.054 254.491 282.856 255.367 282.856C256.231 282.856 256.975 283.054 257.599 283.45C258.235 283.834 258.721 284.344 259.057 284.98C259.393 285.616 259.561 286.3 259.561 287.032C259.561 287.164 259.555 287.296 259.543 287.428C259.543 287.56 259.543 287.71 259.543 287.878H252.433C252.469 288.562 252.625 289.132 252.901 289.588C253.189 290.032 253.543 290.368 253.963 290.596C254.395 290.824 254.851 290.938 255.331 290.938C255.955 290.938 256.477 290.794 256.897 290.506C257.317 290.218 257.623 289.828 257.815 289.336H259.309C259.069 290.164 258.607 290.854 257.923 291.406C257.251 291.946 256.387 292.216 255.331 292.216ZM255.331 284.134C254.611 284.134 253.969 284.356 253.405 284.8C252.853 285.232 252.535 285.868 252.451 286.708H258.067C258.031 285.904 257.755 285.274 257.239 284.818C256.723 284.362 256.087 284.134 255.331 284.134ZM261.065 292V283.072H262.433L262.523 284.674C262.811 284.11 263.225 283.666 263.765 283.342C264.305 283.018 264.917 282.856 265.601 282.856C266.657 282.856 267.497 283.18 268.121 283.828C268.757 284.464 269.075 285.448 269.075 286.78V292H267.563V286.942C267.563 285.082 266.795 284.152 265.259 284.152C264.491 284.152 263.849 284.434 263.333 284.998C262.829 285.55 262.577 286.342 262.577 287.374V292H261.065ZM274.394 292C273.578 292 272.936 291.802 272.468 291.406C272 291.01 271.766 290.296 271.766 289.264V284.35H270.218V283.072H271.766L271.964 280.93H273.278V283.072H275.906V284.35H273.278V289.264C273.278 289.828 273.392 290.212 273.62 290.416C273.848 290.608 274.25 290.704 274.826 290.704H275.762V292H274.394ZM280.747 292.216C279.679 292.216 278.791 291.946 278.083 291.406C277.375 290.866 276.961 290.134 276.841 289.21H278.389C278.485 289.678 278.731 290.086 279.127 290.434C279.535 290.77 280.081 290.938 280.765 290.938C281.401 290.938 281.869 290.806 282.169 290.542C282.469 290.266 282.619 289.942 282.619 289.57C282.619 289.03 282.421 288.67 282.025 288.49C281.641 288.31 281.095 288.148 280.387 288.004C279.907 287.908 279.427 287.77 278.947 287.59C278.467 287.41 278.065 287.158 277.741 286.834C277.417 286.498 277.255 286.06 277.255 285.52C277.255 284.74 277.543 284.104 278.119 283.612C278.707 283.108 279.499 282.856 280.495 282.856C281.443 282.856 282.217 283.096 282.817 283.576C283.429 284.044 283.783 284.716 283.879 285.592H282.385C282.325 285.136 282.127 284.782 281.791 284.53C281.467 284.266 281.029 284.134 280.477 284.134C279.937 284.134 279.517 284.248 279.217 284.476C278.929 284.704 278.785 285.004 278.785 285.376C278.785 285.736 278.971 286.018 279.343 286.222C279.727 286.426 280.243 286.6 280.891 286.744C281.443 286.864 281.965 287.014 282.457 287.194C282.961 287.362 283.369 287.62 283.681 287.968C284.005 288.304 284.167 288.796 284.167 289.444C284.179 290.248 283.873 290.914 283.249 291.442C282.637 291.958 281.803 292.216 280.747 292.216Z" fill="#0F2137"/>
<defs>
<filter id="filter0_d_1_677" x="0" y="0" width="500" height="520" filterUnits="userSpaceOnUse" color-interpolation-filters="sRGB">
<feFlood flood-opacity="0" result="BackgroundImageFix"/>
<feColorMatrix in="SourceAlpha" type="matrix" values="0 0 0 0 0 0 0 0 0 0 0 0 0 0 0 0 0 0 127 0" result="hardAlpha"/>
<feOffset dy="25"/>
<feGaussianBlur stdDeviation="50"/>
<feColorMatrix type="matrix" values="0 0 0 0 0.269792 0 0 0 0 0.346104 0 0 0 0 0.616667 0 0 0 0.08 0"/>
<feBlend mode="normal" in2="BackgroundImageFix" result="effect1_dropShadow_1_677"/>
<feBlend mode="normal" in="SourceGraphic" in2="effect1_dropShadow_1_677" result="shape"/>
</filter>
</defs>
</svg>
