<svg width="500" height="520" viewBox="0 0 500 520" fill="none" xmlns="http://www.w3.org/2000/svg">
<g filter="url(#filter0_d_1_669)">
<rect x="100" y="75" width="300" height="320" rx="10" fill="white"/>
</g>
<path d="M203.961 173.736C207.753 173.736 210.945 174.432 213.537 175.824C216.129 177.216 218.217 179.088 219.801 181.44C221.385 183.792 222.513 186.408 223.185 189.288C223.905 192.168 224.265 195.12 224.265 198.144C224.265 203.76 223.473 208.656 221.889 212.832C220.305 216.96 218.025 220.176 215.049 222.48C212.073 224.736 208.473 225.864 204.249 225.864C200.793 225.864 197.841 225.192 195.393 223.848C192.993 222.456 191.121 220.656 189.777 218.448C188.433 216.24 187.641 213.864 187.401 211.32H195.969C196.401 213.528 197.337 215.232 198.777 216.432C200.217 217.632 202.065 218.232 204.321 218.232C207.537 218.232 210.129 216.768 212.097 213.84C214.065 210.864 215.121 206.352 215.265 200.304C214.113 202.272 212.385 203.904 210.081 205.2C207.777 206.496 205.209 207.144 202.377 207.144C199.593 207.144 196.977 206.472 194.529 205.128C192.081 203.784 190.089 201.888 188.553 199.44C187.065 196.992 186.321 194.112 186.321 190.8C186.321 187.776 187.041 184.968 188.481 182.376C189.969 179.784 192.033 177.696 194.673 176.112C197.361 174.528 200.457 173.736 203.961 173.736ZM204.465 181.656C201.777 181.656 199.545 182.496 197.769 184.176C196.041 185.808 195.177 187.896 195.177 190.44C195.177 193.128 196.065 195.288 197.841 196.92C199.617 198.552 201.873 199.368 204.609 199.368C206.385 199.368 207.969 198.984 209.361 198.216C210.801 197.4 211.929 196.344 212.745 195.048C213.561 193.704 213.969 192.216 213.969 190.584C213.969 187.992 213.057 185.856 211.233 184.176C209.457 182.496 207.201 181.656 204.465 181.656ZM251.837 225.864C247.181 225.864 243.197 224.784 239.885 222.624C236.573 220.416 234.005 217.368 232.181 213.48C230.405 209.544 229.517 204.984 229.517 199.8C229.517 194.664 230.405 190.128 232.181 186.192C234.005 182.256 236.573 179.208 239.885 177.048C243.197 174.84 247.181 173.736 251.837 173.736C256.493 173.736 260.477 174.84 263.789 177.048C267.101 179.208 269.645 182.256 271.421 186.192C273.245 190.128 274.157 194.664 274.157 199.8C274.157 204.984 273.245 209.544 271.421 213.48C269.645 217.368 267.101 220.416 263.789 222.624C260.477 224.784 256.493 225.864 251.837 225.864ZM251.837 217.584C255.629 217.584 258.725 216 261.125 212.832C263.525 209.664 264.725 205.32 264.725 199.8C264.725 194.28 263.525 189.936 261.125 186.768C258.725 183.6 255.629 182.016 251.837 182.016C247.997 182.016 244.877 183.6 242.477 186.768C240.125 189.936 238.949 194.28 238.949 199.8C238.949 205.32 240.125 209.664 242.477 212.832C244.877 216 247.997 217.584 251.837 217.584ZM279.927 208.008V200.304H293.463V187.848H301.311V200.304H314.775V208.008H301.311V220.464H293.463V208.008H279.927Z" fill="#FA578E"/>
<path opacity="0.7" d="M177.456 267V254.4H181.326C183.546 254.4 185.178 254.964 186.222 256.092C187.278 257.22 187.806 258.768 187.806 260.736C187.806 262.668 187.278 264.198 186.222 265.326C185.178 266.442 183.546 267 181.326 267H177.456ZM178.968 265.74H181.29C182.514 265.74 183.486 265.542 184.206 265.146C184.938 264.738 185.46 264.162 185.772 263.418C186.084 262.662 186.24 261.768 186.24 260.736C186.24 259.68 186.084 258.774 185.772 258.018C185.46 257.262 184.938 256.68 184.206 256.272C183.486 255.864 182.514 255.66 181.29 255.66H178.968V265.74ZM192.369 267.216C191.625 267.216 191.007 267.09 190.515 266.838C190.023 266.586 189.657 266.25 189.417 265.83C189.177 265.41 189.057 264.954 189.057 264.462C189.057 263.55 189.405 262.848 190.101 262.356C190.797 261.864 191.745 261.618 192.945 261.618H195.357V261.51C195.357 260.73 195.153 260.142 194.745 259.746C194.337 259.338 193.791 259.134 193.107 259.134C192.519 259.134 192.009 259.284 191.577 259.584C191.157 259.872 190.893 260.298 190.785 260.862H189.237C189.297 260.214 189.513 259.668 189.885 259.224C190.269 258.78 190.743 258.444 191.307 258.216C191.871 257.976 192.471 257.856 193.107 257.856C194.355 257.856 195.291 258.192 195.915 258.864C196.551 259.524 196.869 260.406 196.869 261.51V267H195.519L195.429 265.398C195.177 265.902 194.805 266.334 194.313 266.694C193.833 267.042 193.185 267.216 192.369 267.216ZM192.603 265.938C193.179 265.938 193.671 265.788 194.079 265.488C194.499 265.188 194.817 264.798 195.033 264.318C195.249 263.838 195.357 263.334 195.357 262.806V262.788H193.071C192.183 262.788 191.553 262.944 191.181 263.256C190.821 263.556 190.641 263.934 190.641 264.39C190.641 264.858 190.809 265.236 191.145 265.524C191.493 265.8 191.979 265.938 192.603 265.938ZM199.556 256.092C199.256 256.092 199.004 255.996 198.8 255.804C198.608 255.6 198.512 255.348 198.512 255.048C198.512 254.76 198.608 254.52 198.8 254.328C199.004 254.136 199.256 254.04 199.556 254.04C199.844 254.04 200.09 254.136 200.294 254.328C200.498 254.52 200.6 254.76 200.6 255.048C200.6 255.348 200.498 255.6 200.294 255.804C200.09 255.996 199.844 256.092 199.556 256.092ZM198.8 267V258.072H200.312V267H198.8ZM202.444 267V254.04H203.956V267H202.444ZM206.906 270.96L209.12 266.136H208.598L205.052 258.072H206.69L209.642 265.02L212.774 258.072H214.34L208.49 270.96H206.906ZM227.512 258.072V267H226.144L226.054 265.398C225.766 265.962 225.352 266.406 224.812 266.73C224.272 267.054 223.66 267.216 222.976 267.216C221.92 267.216 221.074 266.898 220.438 266.262C219.814 265.614 219.502 264.624 219.502 263.292V258.072H221.014V263.13C221.014 264.99 221.782 265.92 223.318 265.92C224.086 265.92 224.722 265.644 225.226 265.092C225.742 264.528 226 263.73 226 262.698V258.072H227.512ZM229.501 270.96V258.072H230.869L231.013 259.548C231.301 259.116 231.709 258.726 232.237 258.378C232.777 258.03 233.461 257.856 234.289 257.856C235.177 257.856 235.951 258.06 236.611 258.468C237.271 258.876 237.781 259.434 238.141 260.142C238.513 260.85 238.699 261.654 238.699 262.554C238.699 263.454 238.513 264.258 238.141 264.966C237.781 265.662 237.265 266.214 236.593 266.622C235.933 267.018 235.159 267.216 234.271 267.216C233.539 267.216 232.885 267.066 232.309 266.766C231.745 266.466 231.313 266.046 231.013 265.506V270.96H229.501ZM234.109 265.902C234.709 265.902 235.237 265.764 235.693 265.488C236.149 265.2 236.509 264.804 236.773 264.3C237.037 263.796 237.169 263.208 237.169 262.536C237.169 261.864 237.037 261.276 236.773 260.772C236.509 260.268 236.149 259.878 235.693 259.602C235.237 259.314 234.709 259.17 234.109 259.17C233.509 259.17 232.981 259.314 232.525 259.602C232.069 259.878 231.709 260.268 231.445 260.772C231.181 261.276 231.049 261.864 231.049 262.536C231.049 263.208 231.181 263.796 231.445 264.3C231.709 264.804 232.069 265.2 232.525 265.488C232.981 265.764 233.509 265.902 234.109 265.902ZM244.354 267.216C243.466 267.216 242.686 267.012 242.014 266.604C241.354 266.196 240.838 265.638 240.466 264.93C240.106 264.222 239.926 263.418 239.926 262.518C239.926 261.618 240.112 260.82 240.484 260.124C240.856 259.416 241.372 258.864 242.032 258.468C242.692 258.06 243.472 257.856 244.372 257.856C245.104 257.856 245.752 258.006 246.316 258.306C246.88 258.606 247.318 259.026 247.63 259.566V254.04H249.142V267H247.774L247.63 265.524C247.342 265.956 246.928 266.346 246.388 266.694C245.848 267.042 245.17 267.216 244.354 267.216ZM244.516 265.902C245.116 265.902 245.644 265.764 246.1 265.488C246.568 265.2 246.928 264.804 247.18 264.3C247.444 263.796 247.576 263.208 247.576 262.536C247.576 261.864 247.444 261.276 247.18 260.772C246.928 260.268 246.568 259.878 246.1 259.602C245.644 259.314 245.116 259.17 244.516 259.17C243.928 259.17 243.4 259.314 242.932 259.602C242.476 259.878 242.116 260.268 241.852 260.772C241.6 261.276 241.474 261.864 241.474 262.536C241.474 263.208 241.6 263.796 241.852 264.3C242.116 264.804 242.476 265.2 242.932 265.488C243.4 265.764 243.928 265.902 244.516 265.902ZM254.076 267.216C253.332 267.216 252.714 267.09 252.222 266.838C251.73 266.586 251.364 266.25 251.124 265.83C250.884 265.41 250.764 264.954 250.764 264.462C250.764 263.55 251.112 262.848 251.808 262.356C252.504 261.864 253.452 261.618 254.652 261.618H257.064V261.51C257.064 260.73 256.86 260.142 256.452 259.746C256.044 259.338 255.498 259.134 254.814 259.134C254.226 259.134 253.716 259.284 253.284 259.584C252.864 259.872 252.6 260.298 252.492 260.862H250.944C251.004 260.214 251.22 259.668 251.592 259.224C251.976 258.78 252.45 258.444 253.014 258.216C253.578 257.976 254.178 257.856 254.814 257.856C256.062 257.856 256.998 258.192 257.622 258.864C258.258 259.524 258.576 260.406 258.576 261.51V267H257.226L257.136 265.398C256.884 265.902 256.512 266.334 256.02 266.694C255.54 267.042 254.892 267.216 254.076 267.216ZM254.31 265.938C254.886 265.938 255.378 265.788 255.786 265.488C256.206 265.188 256.524 264.798 256.74 264.318C256.956 263.838 257.064 263.334 257.064 262.806V262.788H254.778C253.89 262.788 253.26 262.944 252.888 263.256C252.528 263.556 252.348 263.934 252.348 264.39C252.348 264.858 252.516 265.236 252.852 265.524C253.2 265.8 253.686 265.938 254.31 265.938ZM263.626 267C262.81 267 262.168 266.802 261.7 266.406C261.232 266.01 260.998 265.296 260.998 264.264V259.35H259.45V258.072H260.998L261.196 255.93H262.51V258.072H265.138V259.35H262.51V264.264C262.51 264.828 262.624 265.212 262.852 265.416C263.08 265.608 263.482 265.704 264.058 265.704H264.994V267H263.626ZM270.327 267.216C269.475 267.216 268.719 267.024 268.059 266.64C267.399 266.244 266.877 265.698 266.493 265.002C266.121 264.306 265.935 263.484 265.935 262.536C265.935 261.6 266.121 260.784 266.493 260.088C266.865 259.38 267.381 258.834 268.041 258.45C268.713 258.054 269.487 257.856 270.363 257.856C271.227 257.856 271.971 258.054 272.595 258.45C273.231 258.834 273.717 259.344 274.053 259.98C274.389 260.616 274.557 261.3 274.557 262.032C274.557 262.164 274.551 262.296 274.539 262.428C274.539 262.56 274.539 262.71 274.539 262.878H267.429C267.465 263.562 267.621 264.132 267.897 264.588C268.185 265.032 268.539 265.368 268.959 265.596C269.391 265.824 269.847 265.938 270.327 265.938C270.951 265.938 271.473 265.794 271.893 265.506C272.313 265.218 272.619 264.828 272.811 264.336H274.305C274.065 265.164 273.603 265.854 272.919 266.406C272.247 266.946 271.383 267.216 270.327 267.216ZM270.327 259.134C269.607 259.134 268.965 259.356 268.401 259.8C267.849 260.232 267.531 260.868 267.447 261.708H273.063C273.027 260.904 272.751 260.274 272.235 259.818C271.719 259.362 271.083 259.134 270.327 259.134ZM280.111 267.216C279.223 267.216 278.443 267.012 277.771 266.604C277.111 266.196 276.595 265.638 276.223 264.93C275.863 264.222 275.683 263.418 275.683 262.518C275.683 261.618 275.869 260.82 276.241 260.124C276.613 259.416 277.129 258.864 277.789 258.468C278.449 258.06 279.229 257.856 280.129 257.856C280.861 257.856 281.509 258.006 282.073 258.306C282.637 258.606 283.075 259.026 283.387 259.566V254.04H284.899V267H283.531L283.387 265.524C283.099 265.956 282.685 266.346 282.145 266.694C281.605 267.042 280.927 267.216 280.111 267.216ZM280.273 265.902C280.873 265.902 281.401 265.764 281.857 265.488C282.325 265.2 282.685 264.804 282.937 264.3C283.201 263.796 283.333 263.208 283.333 262.536C283.333 261.864 283.201 261.276 282.937 260.772C282.685 260.268 282.325 259.878 281.857 259.602C281.401 259.314 280.873 259.17 280.273 259.17C279.685 259.17 279.157 259.314 278.689 259.602C278.233 259.878 277.873 260.268 277.609 260.772C277.357 261.276 277.231 261.864 277.231 262.536C277.231 263.208 277.357 263.796 277.609 264.3C277.873 264.804 278.233 265.2 278.689 265.488C279.157 265.764 279.685 265.902 280.273 265.902ZM295.898 267.216C295.166 267.216 294.512 267.066 293.936 266.766C293.372 266.466 292.94 266.046 292.64 265.506L292.496 267H291.128V254.04H292.64V259.548C292.928 259.116 293.336 258.726 293.864 258.378C294.404 258.03 295.088 257.856 295.916 257.856C296.804 257.856 297.578 258.06 298.238 258.468C298.898 258.876 299.408 259.434 299.768 260.142C300.14 260.85 300.326 261.654 300.326 262.554C300.326 263.454 300.14 264.258 299.768 264.966C299.408 265.662 298.892 266.214 298.22 266.622C297.56 267.018 296.786 267.216 295.898 267.216ZM295.736 265.902C296.336 265.902 296.864 265.764 297.32 265.488C297.776 265.2 298.136 264.804 298.4 264.3C298.664 263.796 298.796 263.208 298.796 262.536C298.796 261.864 298.664 261.276 298.4 260.772C298.136 260.268 297.776 259.878 297.32 259.602C296.864 259.314 296.336 259.17 295.736 259.17C295.136 259.17 294.608 259.314 294.152 259.602C293.696 259.878 293.336 260.268 293.072 260.772C292.808 261.276 292.676 261.864 292.676 262.536C292.676 263.208 292.808 263.796 293.072 264.3C293.336 264.804 293.696 265.2 294.152 265.488C294.608 265.764 295.136 265.902 295.736 265.902ZM301.93 267V254.04H303.442V267H301.93ZM309.489 267.216C308.649 267.216 307.893 267.024 307.221 266.64C306.549 266.256 306.015 265.716 305.619 265.02C305.235 264.312 305.043 263.484 305.043 262.536C305.043 261.588 305.241 260.766 305.637 260.07C306.033 259.362 306.567 258.816 307.239 258.432C307.923 258.048 308.685 257.856 309.525 257.856C310.365 257.856 311.121 258.048 311.793 258.432C312.465 258.816 312.993 259.362 313.377 260.07C313.773 260.766 313.971 261.588 313.971 262.536C313.971 263.484 313.773 264.312 313.377 265.02C312.981 265.716 312.441 266.256 311.757 266.64C311.085 267.024 310.329 267.216 309.489 267.216ZM309.489 265.92C310.005 265.92 310.485 265.794 310.929 265.542C311.373 265.29 311.733 264.912 312.009 264.408C312.285 263.904 312.423 263.28 312.423 262.536C312.423 261.792 312.285 261.168 312.009 260.664C311.745 260.16 311.391 259.782 310.947 259.53C310.503 259.278 310.029 259.152 309.525 259.152C309.009 259.152 308.529 259.278 308.085 259.53C307.641 259.782 307.281 260.16 307.005 260.664C306.729 261.168 306.591 261.792 306.591 262.536C306.591 263.28 306.729 263.904 307.005 264.408C307.281 264.912 307.635 265.29 308.067 265.542C308.511 265.794 308.985 265.92 309.489 265.92ZM318.714 264.192C318.21 264.192 317.748 264.126 317.328 263.994L316.428 264.84C316.56 264.936 316.722 265.02 316.914 265.092C317.118 265.152 317.406 265.212 317.778 265.272C318.15 265.32 318.672 265.374 319.344 265.434C320.544 265.518 321.402 265.794 321.918 266.262C322.434 266.73 322.692 267.342 322.692 268.098C322.692 268.614 322.548 269.106 322.26 269.574C321.984 270.042 321.552 270.426 320.964 270.726C320.388 271.026 319.644 271.176 318.732 271.176C317.928 271.176 317.214 271.068 316.59 270.852C315.966 270.648 315.48 270.33 315.132 269.898C314.784 269.478 314.61 268.944 314.61 268.296C314.61 267.96 314.7 267.594 314.88 267.198C315.06 266.814 315.396 266.448 315.888 266.1C315.624 265.992 315.396 265.878 315.204 265.758C315.024 265.626 314.856 265.482 314.7 265.326V264.912L316.23 263.4C315.522 262.8 315.168 262.008 315.168 261.024C315.168 260.436 315.306 259.902 315.582 259.422C315.858 258.942 316.26 258.564 316.788 258.288C317.316 258 317.958 257.856 318.714 257.856C319.23 257.856 319.698 257.928 320.118 258.072H323.412V259.206L321.738 259.278C322.086 259.782 322.26 260.364 322.26 261.024C322.26 261.612 322.116 262.146 321.828 262.626C321.552 263.106 321.15 263.49 320.622 263.778C320.106 264.054 319.47 264.192 318.714 264.192ZM318.714 262.95C319.35 262.95 319.854 262.788 320.226 262.464C320.61 262.128 320.802 261.648 320.802 261.024C320.802 260.412 320.61 259.944 320.226 259.62C319.854 259.284 319.35 259.116 318.714 259.116C318.066 259.116 317.55 259.284 317.166 259.62C316.794 259.944 316.608 260.412 316.608 261.024C316.608 261.648 316.794 262.128 317.166 262.464C317.55 262.788 318.066 262.95 318.714 262.95ZM316.086 268.152C316.086 268.752 316.338 269.196 316.842 269.484C317.346 269.784 317.976 269.934 318.732 269.934C319.476 269.934 320.07 269.772 320.514 269.448C320.97 269.124 321.198 268.692 321.198 268.152C321.198 267.768 321.042 267.432 320.73 267.144C320.418 266.868 319.842 266.706 319.002 266.658C318.342 266.61 317.772 266.55 317.292 266.478C316.8 266.742 316.476 267.024 316.32 267.324C316.164 267.636 316.086 267.912 316.086 268.152ZM197.227 296.96V284.072H198.595L198.739 285.548C199.027 285.116 199.435 284.726 199.963 284.378C200.503 284.03 201.187 283.856 202.015 283.856C202.903 283.856 203.677 284.06 204.337 284.468C204.997 284.876 205.507 285.434 205.867 286.142C206.239 286.85 206.425 287.654 206.425 288.554C206.425 289.454 206.239 290.258 205.867 290.966C205.507 291.662 204.991 292.214 204.319 292.622C203.659 293.018 202.885 293.216 201.997 293.216C201.265 293.216 200.611 293.066 200.035 292.766C199.471 292.466 199.039 292.046 198.739 291.506V296.96H197.227ZM201.835 291.902C202.435 291.902 202.963 291.764 203.419 291.488C203.875 291.2 204.235 290.804 204.499 290.3C204.763 289.796 204.895 289.208 204.895 288.536C204.895 287.864 204.763 287.276 204.499 286.772C204.235 286.268 203.875 285.878 203.419 285.602C202.963 285.314 202.435 285.17 201.835 285.17C201.235 285.17 200.707 285.314 200.251 285.602C199.795 285.878 199.435 286.268 199.171 286.772C198.907 287.276 198.775 287.864 198.775 288.536C198.775 289.208 198.907 289.796 199.171 290.3C199.435 290.804 199.795 291.2 200.251 291.488C200.707 291.764 201.235 291.902 201.835 291.902ZM212.098 293.216C211.258 293.216 210.502 293.024 209.83 292.64C209.158 292.256 208.624 291.716 208.228 291.02C207.844 290.312 207.652 289.484 207.652 288.536C207.652 287.588 207.85 286.766 208.246 286.07C208.642 285.362 209.176 284.816 209.848 284.432C210.532 284.048 211.294 283.856 212.134 283.856C212.974 283.856 213.73 284.048 214.402 284.432C215.074 284.816 215.602 285.362 215.986 286.07C216.382 286.766 216.58 287.588 216.58 288.536C216.58 289.484 216.382 290.312 215.986 291.02C215.59 291.716 215.05 292.256 214.366 292.64C213.694 293.024 212.938 293.216 212.098 293.216ZM212.098 291.92C212.614 291.92 213.094 291.794 213.538 291.542C213.982 291.29 214.342 290.912 214.618 290.408C214.894 289.904 215.032 289.28 215.032 288.536C215.032 287.792 214.894 287.168 214.618 286.664C214.354 286.16 214 285.782 213.556 285.53C213.112 285.278 212.638 285.152 212.134 285.152C211.618 285.152 211.138 285.278 210.694 285.53C210.25 285.782 209.89 286.16 209.614 286.664C209.338 287.168 209.2 287.792 209.2 288.536C209.2 289.28 209.338 289.904 209.614 290.408C209.89 290.912 210.244 291.29 210.676 291.542C211.12 291.794 211.594 291.92 212.098 291.92ZM221.602 293.216C220.534 293.216 219.646 292.946 218.938 292.406C218.23 291.866 217.816 291.134 217.696 290.21H219.244C219.34 290.678 219.586 291.086 219.982 291.434C220.39 291.77 220.936 291.938 221.62 291.938C222.256 291.938 222.724 291.806 223.024 291.542C223.324 291.266 223.474 290.942 223.474 290.57C223.474 290.03 223.276 289.67 222.88 289.49C222.496 289.31 221.95 289.148 221.242 289.004C220.762 288.908 220.282 288.77 219.802 288.59C219.322 288.41 218.92 288.158 218.596 287.834C218.272 287.498 218.11 287.06 218.11 286.52C218.11 285.74 218.398 285.104 218.974 284.612C219.562 284.108 220.354 283.856 221.35 283.856C222.298 283.856 223.072 284.096 223.672 284.576C224.284 285.044 224.638 285.716 224.734 286.592H223.24C223.18 286.136 222.982 285.782 222.646 285.53C222.322 285.266 221.884 285.134 221.332 285.134C220.792 285.134 220.372 285.248 220.072 285.476C219.784 285.704 219.64 286.004 219.64 286.376C219.64 286.736 219.826 287.018 220.198 287.222C220.582 287.426 221.098 287.6 221.746 287.744C222.298 287.864 222.82 288.014 223.312 288.194C223.816 288.362 224.224 288.62 224.536 288.968C224.86 289.304 225.022 289.796 225.022 290.444C225.034 291.248 224.728 291.914 224.104 292.442C223.492 292.958 222.658 293.216 221.602 293.216ZM229.806 293C228.99 293 228.348 292.802 227.88 292.406C227.412 292.01 227.178 291.296 227.178 290.264V285.35H225.63V284.072H227.178L227.376 281.93H228.69V284.072H231.318V285.35H228.69V290.264C228.69 290.828 228.804 291.212 229.032 291.416C229.26 291.608 229.662 291.704 230.238 291.704H231.174V293H229.806ZM237.003 293V284.072H238.371L238.479 285.368C238.767 284.888 239.151 284.516 239.631 284.252C240.111 283.988 240.651 283.856 241.251 283.856C241.959 283.856 242.565 284 243.069 284.288C243.585 284.576 243.981 285.014 244.257 285.602C244.569 285.062 244.995 284.636 245.535 284.324C246.087 284.012 246.681 283.856 247.317 283.856C248.385 283.856 249.237 284.18 249.873 284.828C250.509 285.464 250.827 286.448 250.827 287.78V293H249.333V287.942C249.333 287.018 249.147 286.322 248.775 285.854C248.403 285.386 247.869 285.152 247.173 285.152C246.453 285.152 245.853 285.434 245.373 285.998C244.905 286.55 244.671 287.342 244.671 288.374V293H243.159V287.942C243.159 287.018 242.973 286.322 242.601 285.854C242.229 285.386 241.695 285.152 240.999 285.152C240.291 285.152 239.697 285.434 239.217 285.998C238.749 286.55 238.515 287.342 238.515 288.374V293H237.003ZM255.574 293.216C254.83 293.216 254.212 293.09 253.72 292.838C253.228 292.586 252.862 292.25 252.622 291.83C252.382 291.41 252.262 290.954 252.262 290.462C252.262 289.55 252.61 288.848 253.306 288.356C254.002 287.864 254.95 287.618 256.15 287.618H258.562V287.51C258.562 286.73 258.358 286.142 257.95 285.746C257.542 285.338 256.996 285.134 256.312 285.134C255.724 285.134 255.214 285.284 254.782 285.584C254.362 285.872 254.098 286.298 253.99 286.862H252.442C252.502 286.214 252.718 285.668 253.09 285.224C253.474 284.78 253.948 284.444 254.512 284.216C255.076 283.976 255.676 283.856 256.312 283.856C257.56 283.856 258.496 284.192 259.12 284.864C259.756 285.524 260.074 286.406 260.074 287.51V293H258.724L258.634 291.398C258.382 291.902 258.01 292.334 257.518 292.694C257.038 293.042 256.39 293.216 255.574 293.216ZM255.808 291.938C256.384 291.938 256.876 291.788 257.284 291.488C257.704 291.188 258.022 290.798 258.238 290.318C258.454 289.838 258.562 289.334 258.562 288.806V288.788H256.276C255.388 288.788 254.758 288.944 254.386 289.256C254.026 289.556 253.846 289.934 253.846 290.39C253.846 290.858 254.014 291.236 254.35 291.524C254.698 291.8 255.184 291.938 255.808 291.938ZM262.761 282.092C262.461 282.092 262.209 281.996 262.005 281.804C261.813 281.6 261.717 281.348 261.717 281.048C261.717 280.76 261.813 280.52 262.005 280.328C262.209 280.136 262.461 280.04 262.761 280.04C263.049 280.04 263.295 280.136 263.499 280.328C263.703 280.52 263.805 280.76 263.805 281.048C263.805 281.348 263.703 281.6 263.499 281.804C263.295 281.996 263.049 282.092 262.761 282.092ZM262.005 293V284.072H263.517V293H262.005ZM265.649 293V284.072H267.017L267.107 285.674C267.395 285.11 267.809 284.666 268.349 284.342C268.889 284.018 269.501 283.856 270.185 283.856C271.241 283.856 272.081 284.18 272.705 284.828C273.341 285.464 273.659 286.448 273.659 287.78V293H272.147V287.942C272.147 286.082 271.379 285.152 269.843 285.152C269.075 285.152 268.433 285.434 267.917 285.998C267.413 286.55 267.161 287.342 267.161 288.374V293H265.649ZM278.978 293C278.162 293 277.52 292.802 277.052 292.406C276.584 292.01 276.35 291.296 276.35 290.264V285.35H274.802V284.072H276.35L276.548 281.93H277.862V284.072H280.49V285.35H277.862V290.264C277.862 290.828 277.976 291.212 278.204 291.416C278.432 291.608 278.834 291.704 279.41 291.704H280.346V293H278.978ZM284.881 293.216C284.137 293.216 283.519 293.09 283.027 292.838C282.535 292.586 282.169 292.25 281.929 291.83C281.689 291.41 281.569 290.954 281.569 290.462C281.569 289.55 281.917 288.848 282.613 288.356C283.309 287.864 284.257 287.618 285.457 287.618H287.869V287.51C287.869 286.73 287.665 286.142 287.257 285.746C286.849 285.338 286.303 285.134 285.619 285.134C285.031 285.134 284.521 285.284 284.089 285.584C283.669 285.872 283.405 286.298 283.297 286.862H281.749C281.809 286.214 282.025 285.668 282.397 285.224C282.781 284.78 283.255 284.444 283.819 284.216C284.383 283.976 284.983 283.856 285.619 283.856C286.867 283.856 287.803 284.192 288.427 284.864C289.063 285.524 289.381 286.406 289.381 287.51V293H288.031L287.941 291.398C287.689 291.902 287.317 292.334 286.825 292.694C286.345 293.042 285.697 293.216 284.881 293.216ZM285.115 291.938C285.691 291.938 286.183 291.788 286.591 291.488C287.011 291.188 287.329 290.798 287.545 290.318C287.761 289.838 287.869 289.334 287.869 288.806V288.788H285.583C284.695 288.788 284.065 288.944 283.693 289.256C283.333 289.556 283.153 289.934 283.153 290.39C283.153 290.858 283.321 291.236 283.657 291.524C284.005 291.8 284.491 291.938 285.115 291.938ZM292.067 282.092C291.767 282.092 291.515 281.996 291.311 281.804C291.119 281.6 291.023 281.348 291.023 281.048C291.023 280.76 291.119 280.52 291.311 280.328C291.515 280.136 291.767 280.04 292.067 280.04C292.355 280.04 292.601 280.136 292.805 280.328C293.009 280.52 293.111 280.76 293.111 281.048C293.111 281.348 293.009 281.6 292.805 281.804C292.601 281.996 292.355 282.092 292.067 282.092ZM291.311 293V284.072H292.823V293H291.311ZM294.956 293V284.072H296.324L296.414 285.674C296.702 285.11 297.116 284.666 297.656 284.342C298.196 284.018 298.808 283.856 299.492 283.856C300.548 283.856 301.388 284.18 302.012 284.828C302.648 285.464 302.966 286.448 302.966 287.78V293H301.454V287.942C301.454 286.082 300.686 285.152 299.15 285.152C298.382 285.152 297.74 285.434 297.224 285.998C296.72 286.55 296.468 287.342 296.468 288.374V293H294.956Z" fill="#0F2137"/>
<defs>
<filter id="filter0_d_1_669" x="0" y="0" width="500" height="520" filterUnits="userSpaceOnUse" color-interpolation-filters="sRGB">
<feFlood flood-opacity="0" result="BackgroundImageFix"/>
<feColorMatrix in="SourceAlpha" type="matrix" values="0 0 0 0 0 0 0 0 0 0 0 0 0 0 0 0 0 0 127 0" result="hardAlpha"/>
<feOffset dy="25"/>
<feGaussianBlur stdDeviation="50"/>
<feColorMatrix type="matrix" values="0 0 0 0 0.269792 0 0 0 0 0.346104 0 0 0 0 0.616667 0 0 0 0.08 0"/>
<feBlend mode="normal" in2="BackgroundImageFix" result="effect1_dropShadow_1_669"/>
<feBlend mode="normal" in="SourceGraphic" in2="effect1_dropShadow_1_669" result="shape"/>
</filter>
</defs>
</svg>
